<svg width="25" height="25" viewBox="0 0 25 25" fill="none" xmlns="http://www.w3.org/2000/svg">
<rect width="25" height="25" fill="white"/>
<path d="M12.5003 4.1665C7.8972 4.1665 4.16699 7.89775 4.16699 12.4998C4.16699 17.1019 7.8972 20.8332 12.5003 20.8332C17.1034 20.8332 20.8337 17.1019 20.8337 12.4998C20.8337 7.89775 17.1034 4.1665 12.5003 4.1665ZM16.3618 14.8884C16.5571 15.0837 16.6668 15.3486 16.6668 15.6248C16.6668 15.9011 16.5571 16.166 16.3618 16.3613C16.1665 16.5566 15.9015 16.6663 15.6253 16.6663C15.3491 16.6663 15.0842 16.5566 14.8889 16.3613L12.5003 13.9728L10.1118 16.3613C10.0153 16.4584 9.90052 16.5354 9.77413 16.588C9.64774 16.6405 9.51221 16.6676 9.37532 16.6676C9.23844 16.6676 9.10291 16.6405 8.97652 16.588C8.85013 16.5354 8.73538 16.4584 8.63887 16.3613C8.44358 16.166 8.33388 15.901 8.33388 15.6248C8.33388 15.3486 8.44358 15.0837 8.63887 14.8884L11.0274 12.4998L8.63887 10.1113C8.44355 9.91597 8.33382 9.65106 8.33382 9.37484C8.33382 9.09861 8.44355 8.8337 8.63887 8.63838C8.83419 8.44306 9.0991 8.33333 9.37532 8.33333C9.65155 8.33333 9.91646 8.44306 10.1118 8.63838L12.5003 11.0269L14.8889 8.63838C15.0842 8.44306 15.3491 8.33333 15.6253 8.33333C15.9015 8.33333 16.1665 8.44306 16.3618 8.63838C16.5571 8.8337 16.6668 9.09861 16.6668 9.37484C16.6668 9.65106 16.5571 9.91597 16.3618 10.1113L13.9732 12.4998L16.3618 14.8884Z" fill="#F24822"/>
</svg>
