<svg width="28" height="45" viewBox="0 0 28 45" fill="none" xmlns="http://www.w3.org/2000/svg">
<rect x="8.48438" width="2.12121" height="10.1198" rx="1.06061" fill="#063579"/>
<rect x="8.48438" y="1.93848" width="1.93783" height="11.0303" rx="0.968915" transform="rotate(-90 8.48438 1.93848)" fill="#063579"/>
<rect x="17.3926" width="2.12121" height="10.1198" rx="1.06061" fill="#063579"/>
<rect y="10.7656" width="28" height="28.4215" rx="5" fill="#063579"/>
<ellipse cx="6.47064" cy="42.8475" rx="2.43939" ry="2.15314" fill="#063579"/>
<ellipse cx="21.5312" cy="42.8475" rx="2.43939" ry="2.15314" fill="#063579"/>
<ellipse cx="6.47017" cy="42.8456" rx="0.954545" ry="0.861258" fill="white"/>
<ellipse cx="21.5288" cy="42.8456" rx="0.954545" ry="0.861258" fill="white"/>
<path d="M21.9889 15.6353C22.7232 15.7825 23.2972 16.3566 23.4444 17.0909C23.5494 17.617 23.5342 18.16 23.4001 18.6795C23.2661 19.199 23.0165 19.6815 22.6701 20.0912L19.9142 23.3489L21.8616 30.4926C21.9198 30.7056 21.9206 30.9302 21.8639 31.1436C21.8073 31.357 21.6952 31.5516 21.5391 31.7078L20.2348 33.0121C20.124 33.1228 19.9891 33.2063 19.8405 33.256C19.692 33.3056 19.534 33.3202 19.3789 33.2984C19.2239 33.2767 19.0759 33.2192 18.9468 33.1306C18.8177 33.042 18.711 32.9246 18.6349 32.7877L15.6366 27.3911L12.3728 29.6501V30.4385C12.3728 30.7701 12.2406 31.0897 12.0062 31.3241L10.3202 33.0091C10.1982 33.1312 10.0471 33.22 9.88109 33.2673C9.71509 33.3145 9.53978 33.3184 9.37182 33.2788C9.20386 33.2391 9.04884 33.1572 8.92149 33.0407C8.79414 32.9242 8.69869 32.7771 8.64423 32.6134L8.09927 30.9795L6.46537 30.4345C6.30161 30.38 6.15451 30.2846 6.03804 30.1572C5.92157 30.0299 5.83962 29.8749 5.79996 29.7069C5.76031 29.5389 5.76427 29.3636 5.81148 29.1976C5.85868 29.0316 5.94757 28.8805 6.06967 28.7585L7.75566 27.0725C7.87196 26.9563 8.01003 26.864 8.16197 26.8011C8.31392 26.7382 8.47677 26.7059 8.64123 26.7059H9.42962L11.6886 23.4421L6.29206 20.4438C6.15516 20.3678 6.03777 20.261 5.94913 20.1319C5.8605 20.0028 5.80305 19.8549 5.78129 19.6998C5.75954 19.5447 5.77408 19.3867 5.82378 19.2382C5.87347 19.0897 5.95696 18.9547 6.06767 18.844L7.37198 17.5397C7.5281 17.3835 7.72273 17.2715 7.93614 17.2148C8.14954 17.1582 8.37413 17.159 8.58713 17.2171L15.7298 19.1645L18.9886 16.4087C19.3982 16.0622 19.8807 15.8127 20.4002 15.6786C20.9197 15.5445 21.4627 15.5304 21.9889 15.6353Z" fill="white"/>
</svg>
