<svg width="174" height="38" viewBox="0 0 174 38" fill="none" xmlns="http://www.w3.org/2000/svg">
<g clip-path="url(#clip0_809_2968)">
<path d="M7.17173 30V12.392H0.227729V8.3H19.1377V12.392H12.1937V30H7.17173ZM20.6705 30V13.322H25.2895V18.034L24.6385 16.67C25.1345 15.492 25.9302 14.6033 27.0255 14.004C28.1209 13.384 29.4539 13.074 31.0245 13.074V17.538C30.8179 17.5173 30.6319 17.507 30.4665 17.507C30.3012 17.4863 30.1255 17.476 29.9395 17.476C28.6169 17.476 27.5422 17.8583 26.7155 18.623C25.9095 19.367 25.5065 20.5347 25.5065 22.126V30H20.6705ZM42.5752 30V26.745L42.2652 26.032V20.204C42.2652 19.1707 41.9448 18.3647 41.3042 17.786C40.6842 17.2073 39.7232 16.918 38.4212 16.918C37.5325 16.918 36.6542 17.0627 35.7862 17.352C34.9388 17.6207 34.2155 17.9927 33.6162 18.468L31.8802 15.089C32.7895 14.4483 33.8848 13.9523 35.1662 13.601C36.4475 13.2497 37.7495 13.074 39.0722 13.074C41.6142 13.074 43.5878 13.6733 44.9932 14.872C46.3985 16.0707 47.1012 17.941 47.1012 20.483V30H42.5752ZM37.4912 30.248C36.1892 30.248 35.0732 30.031 34.1432 29.597C33.2132 29.1423 32.5002 28.5327 32.0042 27.768C31.5082 27.0033 31.2602 26.1457 31.2602 25.195C31.2602 24.203 31.4978 23.335 31.9732 22.591C32.4692 21.847 33.2442 21.2683 34.2982 20.855C35.3522 20.421 36.7265 20.204 38.4212 20.204H42.8542V23.025H38.9482C37.8115 23.025 37.0262 23.211 36.5922 23.583C36.1788 23.955 35.9722 24.42 35.9722 24.978C35.9722 25.598 36.2098 26.094 36.6852 26.466C37.1812 26.8173 37.8528 26.993 38.7002 26.993C39.5062 26.993 40.2295 26.807 40.8702 26.435C41.5108 26.0423 41.9758 25.474 42.2652 24.73L43.0092 26.962C42.6578 28.0367 42.0172 28.853 41.0872 29.411C40.1572 29.969 38.9585 30.248 37.4912 30.248ZM55.2363 30L48.2303 13.322H53.2213L59.0493 27.675H56.5693L62.6143 13.322H67.2643L60.2273 30H55.2363ZM76.5955 30.248C74.6942 30.248 73.0202 29.876 71.5735 29.132C70.1475 28.388 69.0418 27.3753 68.2565 26.094C67.4712 24.792 67.0785 23.3143 67.0785 21.661C67.0785 19.987 67.4608 18.5093 68.2255 17.228C69.0108 15.926 70.0752 14.9133 71.4185 14.19C72.7618 13.446 74.2808 13.074 75.9755 13.074C77.6082 13.074 79.0755 13.4253 80.3775 14.128C81.7002 14.81 82.7438 15.802 83.5085 17.104C84.2732 18.3853 84.6555 19.925 84.6555 21.723C84.6555 21.909 84.6452 22.126 84.6245 22.374C84.6038 22.6013 84.5832 22.8183 84.5625 23.025H71.0155V20.204H82.0205L80.1605 21.041C80.1605 20.173 79.9848 19.4187 79.6335 18.778C79.2822 18.1373 78.7965 17.6413 78.1765 17.29C77.5565 16.918 76.8332 16.732 76.0065 16.732C75.1798 16.732 74.4462 16.918 73.8055 17.29C73.1855 17.6413 72.6998 18.1477 72.3485 18.809C71.9972 19.4497 71.8215 20.2143 71.8215 21.103V21.847C71.8215 22.7563 72.0178 23.5623 72.4105 24.265C72.8238 24.947 73.3922 25.474 74.1155 25.846C74.8595 26.1973 75.7275 26.373 76.7195 26.373C77.6082 26.373 78.3832 26.2387 79.0445 25.97C79.7265 25.7013 80.3465 25.2983 80.9045 24.761L83.4775 27.551C82.7128 28.419 81.7518 29.0907 80.5945 29.566C79.4372 30.0207 78.1042 30.248 76.5955 30.248ZM87.4101 30V6.998H92.2461V30H87.4101Z" fill="white"/>
<path d="M96.6104 30V8.3H100.764L110.002 23.614H107.801L116.884 8.3H121.007L121.069 30H116.357L116.326 15.523H117.194L109.94 27.706H107.677L100.268 15.523H101.322V30H96.6104ZM135.642 30V26.745L135.332 26.032V20.204C135.332 19.1707 135.011 18.3647 134.371 17.786C133.751 17.2073 132.79 16.918 131.488 16.918C130.599 16.918 129.721 17.0627 128.853 17.352C128.005 17.6207 127.282 17.9927 126.683 18.468L124.947 15.089C125.856 14.4483 126.951 13.9523 128.233 13.601C129.514 13.2497 130.816 13.074 132.139 13.074C134.681 13.074 136.654 13.6733 138.06 14.872C139.465 16.0707 140.168 17.941 140.168 20.483V30H135.642ZM130.558 30.248C129.256 30.248 128.14 30.031 127.21 29.597C126.28 29.1423 125.567 28.5327 125.071 27.768C124.575 27.0033 124.327 26.1457 124.327 25.195C124.327 24.203 124.564 23.335 125.04 22.591C125.536 21.847 126.311 21.2683 127.365 20.855C128.419 20.421 129.793 20.204 131.488 20.204H135.921V23.025H132.015C130.878 23.025 130.093 23.211 129.659 23.583C129.245 23.955 129.039 24.42 129.039 24.978C129.039 25.598 129.276 26.094 129.752 26.466C130.248 26.8173 130.919 26.993 131.767 26.993C132.573 26.993 133.296 26.807 133.937 26.435C134.577 26.0423 135.042 25.474 135.332 24.73L136.076 26.962C135.724 28.0367 135.084 28.853 134.154 29.411C133.224 29.969 132.025 30.248 130.558 30.248ZM150.9 30.248C148.936 30.248 147.407 29.752 146.312 28.76C145.216 27.7473 144.669 26.249 144.669 24.265V9.633H149.505V24.203C149.505 24.9057 149.691 25.4533 150.063 25.846C150.435 26.218 150.941 26.404 151.582 26.404C152.346 26.404 152.997 26.1973 153.535 25.784L154.837 29.194C154.341 29.5453 153.741 29.814 153.039 30C152.357 30.1653 151.644 30.248 150.9 30.248ZM142.096 17.414V13.694H153.659V17.414H142.096ZM164.849 30.248C162.947 30.248 161.273 29.876 159.827 29.132C158.401 28.388 157.295 27.3753 156.51 26.094C155.724 24.792 155.332 23.3143 155.332 21.661C155.332 19.987 155.714 18.5093 156.479 17.228C157.264 15.926 158.328 14.9133 159.672 14.19C161.015 13.446 162.534 13.074 164.229 13.074C165.861 13.074 167.329 13.4253 168.631 14.128C169.953 14.81 170.997 15.802 171.762 17.104C172.526 18.3853 172.909 19.925 172.909 21.723C172.909 21.909 172.898 22.126 172.878 22.374C172.857 22.6013 172.836 22.8183 172.816 23.025H159.269V20.204H170.274L168.414 21.041C168.414 20.173 168.238 19.4187 167.887 18.778C167.535 18.1373 167.05 17.6413 166.43 17.29C165.81 16.918 165.086 16.732 164.26 16.732C163.433 16.732 162.699 16.918 162.059 17.29C161.439 17.6413 160.953 18.1477 160.602 18.809C160.25 19.4497 160.075 20.2143 160.075 21.103V21.847C160.075 22.7563 160.271 23.5623 160.664 24.265C161.077 24.947 161.645 25.474 162.369 25.846C163.113 26.1973 163.981 26.373 164.973 26.373C165.861 26.373 166.636 26.2387 167.298 25.97C167.98 25.7013 168.6 25.2983 169.158 24.761L171.731 27.551C170.966 28.419 170.005 29.0907 168.848 29.566C167.69 30.0207 166.357 30.248 164.849 30.248Z" fill="#60B5FF"/>
</g>
<defs>
<clipPath id="clip0_809_2968">
<rect width="174" height="38" fill="white"/>
</clipPath>
</defs>
</svg>
