<svg width="225" height="49" viewBox="0 0 225 49" fill="none" xmlns="http://www.w3.org/2000/svg">
<g clip-path="url(#clip0_299_4651)">
<path d="M9.49578 39V16.28H0.535778V11H24.9358V16.28H15.9758V39H9.49578ZM26.9136 39V17.48H32.8736V23.56L32.0336 21.8C32.6736 20.28 33.7003 19.1333 35.1136 18.36C36.5269 17.56 38.2469 17.16 40.2736 17.16V22.92C40.0069 22.8933 39.7669 22.88 39.5536 22.88C39.3403 22.8533 39.1136 22.84 38.8736 22.84C37.1669 22.84 35.7803 23.3333 34.7136 24.32C33.6736 25.28 33.1536 26.7867 33.1536 28.84V39H26.9136ZM55.1777 39V34.8L54.7777 33.88V26.36C54.7777 25.0267 54.3643 23.9867 53.5377 23.24C52.7377 22.4933 51.4977 22.12 49.8177 22.12C48.671 22.12 47.5377 22.3067 46.4177 22.68C45.3243 23.0267 44.391 23.5067 43.6177 24.12L41.3777 19.76C42.551 18.9333 43.9643 18.2933 45.6177 17.84C47.271 17.3867 48.951 17.16 50.6577 17.16C53.9377 17.16 56.4843 17.9333 58.2977 19.48C60.111 21.0267 61.0177 23.44 61.0177 26.72V39H55.1777ZM48.6177 39.32C46.9377 39.32 45.4977 39.04 44.2977 38.48C43.0977 37.8933 42.1777 37.1067 41.5377 36.12C40.8977 35.1333 40.5777 34.0267 40.5777 32.8C40.5777 31.52 40.8843 30.4 41.4977 29.44C42.1377 28.48 43.1377 27.7333 44.4977 27.2C45.8577 26.64 47.631 26.36 49.8177 26.36H55.5377V30H50.4977C49.031 30 48.0177 30.24 47.4577 30.72C46.9243 31.2 46.6577 31.8 46.6577 32.52C46.6577 33.32 46.9643 33.96 47.5777 34.44C48.2177 34.8933 49.0843 35.12 50.1777 35.12C51.2177 35.12 52.151 34.88 52.9777 34.4C53.8043 33.8933 54.4043 33.16 54.7777 32.2L55.7377 35.08C55.2843 36.4667 54.4577 37.52 53.2577 38.24C52.0577 38.96 50.511 39.32 48.6177 39.32ZM71.5145 39L62.4745 17.48H68.9145L76.4345 36H73.2345L81.0345 17.48H87.0345L77.9545 39H71.5145ZM99.0748 39.32C96.6215 39.32 94.4615 38.84 92.5948 37.88C90.7548 36.92 89.3282 35.6133 88.3148 33.96C87.3015 32.28 86.7948 30.3733 86.7948 28.24C86.7948 26.08 87.2882 24.1733 88.2748 22.52C89.2882 20.84 90.6615 19.5333 92.3948 18.6C94.1282 17.64 96.0882 17.16 98.2748 17.16C100.382 17.16 102.275 17.6133 103.955 18.52C105.662 19.4 107.008 20.68 107.995 22.36C108.982 24.0133 109.475 26 109.475 28.32C109.475 28.56 109.462 28.84 109.435 29.16C109.408 29.4533 109.382 29.7333 109.355 30H91.8748V26.36H106.075L103.675 27.44C103.675 26.32 103.448 25.3467 102.995 24.52C102.542 23.6933 101.915 23.0533 101.115 22.6C100.315 22.12 99.3815 21.88 98.3148 21.88C97.2482 21.88 96.3015 22.12 95.4748 22.6C94.6748 23.0533 94.0482 23.7067 93.5948 24.56C93.1415 25.3867 92.9148 26.3733 92.9148 27.52V28.48C92.9148 29.6533 93.1682 30.6933 93.6748 31.6C94.2082 32.48 94.9415 33.16 95.8748 33.64C96.8348 34.0933 97.9548 34.32 99.2348 34.32C100.382 34.32 101.382 34.1467 102.235 33.8C103.115 33.4533 103.915 32.9333 104.635 32.24L107.955 35.84C106.968 36.96 105.728 37.8267 104.235 38.44C102.742 39.0267 101.022 39.32 99.0748 39.32ZM113.029 39V9.32H119.269V39H113.029Z" fill="#1A1A1A"/>
<path d="M124.9 39V11H130.26L142.18 30.76H139.34L151.06 11H156.38L156.46 39H150.38L150.34 20.32H151.46L142.1 36.04H139.18L129.62 20.32H130.98V39H124.9ZM175.264 39V34.8L174.864 33.88V26.36C174.864 25.0267 174.45 23.9867 173.624 23.24C172.824 22.4933 171.584 22.12 169.904 22.12C168.757 22.12 167.624 22.3067 166.504 22.68C165.41 23.0267 164.477 23.5067 163.704 24.12L161.464 19.76C162.637 18.9333 164.05 18.2933 165.704 17.84C167.357 17.3867 169.037 17.16 170.744 17.16C174.024 17.16 176.57 17.9333 178.384 19.48C180.197 21.0267 181.104 23.44 181.104 26.72V39H175.264ZM168.704 39.32C167.024 39.32 165.584 39.04 164.384 38.48C163.184 37.8933 162.264 37.1067 161.624 36.12C160.984 35.1333 160.664 34.0267 160.664 32.8C160.664 31.52 160.97 30.4 161.584 29.44C162.224 28.48 163.224 27.7333 164.584 27.2C165.944 26.64 167.717 26.36 169.904 26.36H175.624V30H170.584C169.117 30 168.104 30.24 167.544 30.72C167.01 31.2 166.744 31.8 166.744 32.52C166.744 33.32 167.05 33.96 167.664 34.44C168.304 34.8933 169.17 35.12 170.264 35.12C171.304 35.12 172.237 34.88 173.064 34.4C173.89 33.8933 174.49 33.16 174.864 32.2L175.824 35.08C175.37 36.4667 174.544 37.52 173.344 38.24C172.144 38.96 170.597 39.32 168.704 39.32ZM194.951 39.32C192.418 39.32 190.444 38.68 189.031 37.4C187.618 36.0933 186.911 34.16 186.911 31.6V12.72H193.151V31.52C193.151 32.4267 193.391 33.1333 193.871 33.64C194.351 34.12 195.004 34.36 195.831 34.36C196.818 34.36 197.658 34.0933 198.351 33.56L200.031 37.96C199.391 38.4133 198.618 38.76 197.711 39C196.831 39.2133 195.911 39.32 194.951 39.32ZM183.591 22.76V17.96H198.511V22.76H183.591ZM212.95 39.32C210.497 39.32 208.337 38.84 206.47 37.88C204.63 36.92 203.203 35.6133 202.19 33.96C201.177 32.28 200.67 30.3733 200.67 28.24C200.67 26.08 201.163 24.1733 202.15 22.52C203.163 20.84 204.537 19.5333 206.27 18.6C208.003 17.64 209.963 17.16 212.15 17.16C214.257 17.16 216.15 17.6133 217.83 18.52C219.537 19.4 220.883 20.68 221.87 22.36C222.857 24.0133 223.35 26 223.35 28.32C223.35 28.56 223.337 28.84 223.31 29.16C223.283 29.4533 223.257 29.7333 223.23 30H205.75V26.36H219.95L217.55 27.44C217.55 26.32 217.323 25.3467 216.87 24.52C216.417 23.6933 215.79 23.0533 214.99 22.6C214.19 22.12 213.257 21.88 212.19 21.88C211.123 21.88 210.177 22.12 209.35 22.6C208.55 23.0533 207.923 23.7067 207.47 24.56C207.017 25.3867 206.79 26.3733 206.79 27.52V28.48C206.79 29.6533 207.043 30.6933 207.55 31.6C208.083 32.48 208.817 33.16 209.75 33.64C210.71 34.0933 211.83 34.32 213.11 34.32C214.257 34.32 215.257 34.1467 216.11 33.8C216.99 33.4533 217.79 32.9333 218.51 32.24L221.83 35.84C220.843 36.96 219.603 37.8267 218.11 38.44C216.617 39.0267 214.897 39.32 212.95 39.32Z" fill="#60B5FF"/>
</g>
<defs>
<clipPath id="clip0_299_4651">
<rect width="225" height="49" fill="white"/>
</clipPath>
</defs>
</svg>
