<svg width="90" height="135" viewBox="0 0 90 135" fill="none" xmlns="http://www.w3.org/2000/svg">
<rect x="27.4805" width="6.87023" height="30.5658" rx="3.43511" fill="#063579"/>
<rect x="27.4805" y="5.73145" width="5.73109" height="35.0382" rx="2.86555" transform="rotate(-90 27.4805 5.73145)" fill="#063579"/>
<rect x="55.6484" width="6.87023" height="30.5658" rx="3.43511" fill="#063579"/>
<rect y="32.4766" width="90" height="85.3296" rx="15" fill="#063579"/>
<ellipse cx="20.9535" cy="128.313" rx="7.90076" ry="6.68628" fill="#063579"/>
<ellipse cx="69.0453" cy="128.313" rx="7.90076" ry="6.68628" fill="#063579"/>
<ellipse cx="20.9549" cy="128.314" rx="3.0916" ry="2.86555" fill="white"/>
<ellipse cx="69.0467" cy="128.314" rx="3.0916" ry="2.86555" fill="white"/>
<path d="M69.6984 46.2904C71.9811 46.7482 73.7655 48.5326 74.2233 50.8154C74.5495 52.451 74.5024 54.1391 74.0856 55.754C73.6688 57.3689 72.893 58.869 71.816 60.1425L63.2488 70.27L69.3029 92.4775C69.4836 93.1397 69.486 93.8379 69.3099 94.5013C69.1338 95.1647 68.7854 95.7697 68.3001 96.2551L64.2453 100.31C63.901 100.654 63.4815 100.913 63.0199 101.068C62.5582 101.222 62.067 101.268 61.5848 101.2C61.1027 101.132 60.6429 100.954 60.2415 100.678C59.8402 100.403 59.5083 100.038 59.2719 99.6122L49.951 82.8359L39.8049 89.8584V92.3093C39.8049 93.3402 39.3938 94.3336 38.6651 95.0623L33.4238 100.3C33.0447 100.68 32.5748 100.956 32.0588 101.103C31.5427 101.25 30.9978 101.262 30.4756 101.139C29.9535 101.016 29.4716 100.761 29.0757 100.399C28.6798 100.037 28.3831 99.5794 28.2137 99.0703L26.5196 93.991L21.4403 92.2969C20.9312 92.1276 20.4739 91.8309 20.1119 91.435C19.7498 91.0391 19.495 90.5572 19.3717 90.035C19.2485 89.5129 19.2608 88.9679 19.4075 88.4519C19.5543 87.9358 19.8306 87.4659 20.2102 87.0868L25.4514 81.8455C25.813 81.4841 26.2422 81.1974 26.7145 81.0018C27.1869 80.8062 27.6932 80.7056 28.2044 80.7057H30.6553L37.6779 70.5596L20.9015 61.2387C20.4759 61.0023 20.111 60.6704 19.8355 60.2691C19.5599 59.8677 19.3813 59.4079 19.3137 58.9258C19.2461 58.4437 19.2913 57.9524 19.4458 57.4908C19.6002 57.0291 19.8598 56.6096 20.2039 56.2653L24.2587 52.2106C24.744 51.7252 25.3491 51.3768 26.0125 51.2007C26.6759 51.0246 27.3741 51.027 28.0362 51.2078L50.2407 57.2618L60.3713 48.6946C61.6447 47.6176 63.1448 46.8418 64.7597 46.425C66.3746 46.0082 68.0627 45.9643 69.6984 46.2904Z" fill="white"/>
</svg>
