<svg width="187" height="273" viewBox="0 0 187 273" fill="none" xmlns="http://www.w3.org/2000/svg">
<rect x="56.666" width="14.1667" height="61.3923" rx="7.08333" fill="#063579"/>
<rect x="56.666" y="11.7559" width="11.756" height="73.6667" rx="5.87799" transform="rotate(-90 56.666 11.7559)" fill="#063579"/>
<rect x="116.166" width="14.1667" height="61.3923" rx="7.08333" fill="#063579"/>
<rect y="65.3105" width="187" height="172.421" rx="15" fill="#063579"/>
<ellipse cx="43.2077" cy="259.938" rx="16.2917" ry="13.0622" fill="#063579"/>
<ellipse cx="143.792" cy="259.938" rx="16.2917" ry="13.0622" fill="#063579"/>
<ellipse cx="43.209" cy="259.938" rx="6.375" ry="5.22488" fill="white"/>
<ellipse cx="143.791" cy="259.938" rx="6.375" ry="5.22488" fill="white"/>
<path d="M94.9993 101.897C67.3337 101.897 44.8965 124.322 44.8965 152C44.8965 179.678 67.3337 202.103 94.9993 202.103C122.673 202.103 145.102 179.678 145.102 152C145.102 124.322 122.677 101.897 94.9993 101.897ZM94.9993 114.085C102.515 114.085 109.511 116.311 115.409 120.097L63.0965 172.41C59.17 166.327 57.0823 159.24 57.084 152C57.084 131.095 74.0937 114.085 94.9993 114.085ZM94.9993 189.916C87.7595 189.915 80.6733 187.827 74.5893 183.903L126.898 131.59C130.825 137.673 132.912 144.76 132.911 152C132.911 172.906 115.905 189.916 94.9993 189.916Z" fill="white"/>
</svg>
