<svg width="210" height="210" viewBox="0 0 210 210" fill="none" xmlns="http://www.w3.org/2000/svg">
<g clip-path="url(#clip0_66_1418)">
<path fill-rule="evenodd" clip-rule="evenodd" d="M175.301 102.949C185.76 90.6855 210 59.9648 210 39.375C210 17.6367 192.363 0 170.625 0C148.887 0 131.25 17.6367 131.25 39.375C131.25 50.9824 138.961 65.8301 147.574 78.75H131.25C109.512 78.75 91.875 96.3867 91.875 118.125C91.875 139.863 109.512 157.5 131.25 157.5H170.625C177.885 157.5 183.75 163.365 183.75 170.625C183.75 177.885 177.885 183.75 170.625 183.75H77.3555C74.8125 187.687 72.1465 191.461 69.5625 194.906C65.1738 200.73 60.8262 205.939 57.2578 210H170.625C192.363 210 210 192.363 210 170.625C210 148.887 192.363 131.25 170.625 131.25H131.25C123.99 131.25 118.125 125.385 118.125 118.125C118.125 110.865 123.99 105 131.25 105H169.354C171.445 105.451 173.742 104.754 175.301 102.949ZM179.906 48.6558C177.444 51.1172 174.106 52.5 170.625 52.5C167.144 52.5 163.806 51.1172 161.344 48.6558C158.883 46.1944 157.5 42.856 157.5 39.375C157.5 35.894 158.883 32.5556 161.344 30.0942C163.806 27.6328 167.144 26.25 170.625 26.25C174.106 26.25 177.444 27.6328 179.906 30.0942C182.367 32.5556 183.75 35.894 183.75 39.375C183.75 42.856 182.367 46.1944 179.906 48.6558Z" fill="black"/>
<g clip-path="url(#clip1_66_1418)">
<path d="M35.7292 139C16.0067 139 0 155.007 0 174.729C0 194.452 16.0067 210.458 35.7292 210.458C55.4517 210.458 71.4583 194.452 71.4583 174.729C71.4583 155.007 55.4517 139 35.7292 139ZM53.5937 178.302H17.8646V171.156H53.5937V178.302Z" fill="#F96300"/>
</g>
</g>
<defs>
<clipPath id="clip0_66_1418">
<rect width="210" height="210" fill="white"/>
</clipPath>
<clipPath id="clip1_66_1418">
<rect width="98" height="105" fill="white" transform="translate(-27 105)"/>
</clipPath>
</defs>
</svg>
