<svg width="150" height="150" viewBox="0 0 150 150" fill="none" xmlns="http://www.w3.org/2000/svg">
<g clip-path="url(#clip0_47_780)">
<path d="M150 0H0V150H150V0Z" fill="white"/>
<mask id="mask0_47_780" style="mask-type:luminance" maskUnits="userSpaceOnUse" x="43" y="25" width="64" height="100">
<path d="M106.158 25H43V125H106.158V25Z" fill="white"/>
</mask>
<g mask="url(#mask0_47_780)">
<path d="M66.9235 27.3923C66.9235 26.0711 65.8524 25 64.5311 25C63.2099 25 62.1388 26.0711 62.1388 27.3923V45.0957C62.1388 46.4169 63.2099 47.488 64.5311 47.488C65.8524 47.488 66.9235 46.4169 66.9235 45.0957V27.3923Z" fill="#063579"/>
<path d="M64.2919 25C63.1028 25 62.1388 25.964 62.1388 27.1531C62.1388 28.3423 63.1028 29.3063 64.2919 29.3063H84.8661C86.0552 29.3063 87.0192 28.3423 87.0192 27.1531C87.0192 25.964 86.0552 25 84.8661 25H64.2919Z" fill="#063579"/>
<path d="M87.0191 27.3923C87.0191 26.0711 85.948 25 84.6268 25C83.3055 25 82.2344 26.0711 82.2344 27.3923V45.0957C82.2344 46.4169 83.3055 47.488 84.6268 47.488C85.948 47.488 87.0191 46.4169 87.0191 45.0957V27.3923Z" fill="#063579"/>
<path d="M98.9809 48.9233H50.177C46.2133 48.9233 43 52.1366 43 56.1004V104.904C43 108.868 46.2133 112.081 50.177 112.081H98.9809C102.945 112.081 106.158 108.868 106.158 104.904V56.1004C106.158 52.1366 102.945 48.9233 98.9809 48.9233Z" fill="#063579"/>
<path d="M57.5933 125C60.6322 125 63.0957 122.858 63.0957 120.215C63.0957 117.573 60.6322 115.431 57.5933 115.431C54.5544 115.431 52.0909 117.573 52.0909 120.215C52.0909 122.858 54.5544 125 57.5933 125Z" fill="#063579"/>
<path d="M91.5647 125C94.6036 125 97.0671 122.858 97.0671 120.215C97.0671 117.573 94.6036 115.431 91.5647 115.431C88.5258 115.431 86.0623 117.573 86.0623 120.215C86.0623 122.858 88.5258 125 91.5647 125Z" fill="#063579"/>
<path d="M57.5933 122.129C58.7824 122.129 59.7464 121.272 59.7464 120.215C59.7464 119.158 58.7824 118.301 57.5933 118.301C56.4042 118.301 55.4402 119.158 55.4402 120.215C55.4402 121.272 56.4042 122.129 57.5933 122.129Z" fill="white"/>
<path d="M91.5646 122.129C92.7537 122.129 93.7177 121.272 93.7177 120.215C93.7177 119.158 92.7537 118.301 91.5646 118.301C90.3755 118.301 89.4115 119.158 89.4115 120.215C89.4115 121.272 90.3755 122.129 91.5646 122.129Z" fill="white"/>
<path d="M92.2727 59.6211C93.9091 59.9522 95.1885 61.2431 95.5168 62.8944C95.7507 64.0776 95.7172 65.2988 95.4182 66.467C95.1192 67.6352 94.5632 68.7203 93.7909 69.6415L87.6483 76.9677L91.989 93.0323C92.1187 93.5112 92.1201 94.0165 91.9943 94.4964C91.868 94.9763 91.6182 95.4136 91.2699 95.7648L88.3628 98.6978C88.116 98.9471 87.8152 99.1347 87.4842 99.2466C87.1532 99.3581 86.801 99.3911 86.4553 99.3419C86.1096 99.2931 85.78 99.1639 85.4922 98.9643C85.2044 98.7653 84.9665 98.5012 84.797 98.1935L78.1141 86.0576L70.8394 91.1376V92.9108C70.8394 93.6562 70.5447 94.3749 70.0222 94.9021L66.2643 98.6911C65.9925 98.9658 65.6556 99.1658 65.2856 99.272C64.9156 99.3782 64.5248 99.3868 64.1504 99.2978C63.7761 99.2088 63.4306 99.0242 63.1467 98.7624C62.8628 98.5007 62.6501 98.1696 62.5287 97.8012L61.3141 94.127L57.6723 92.9017C57.3073 92.7792 56.9794 92.5643 56.7198 92.2782C56.4602 91.9916 56.2775 91.6433 56.1892 91.2653C56.1007 90.8878 56.1096 90.4935 56.2148 90.1203C56.32 89.7466 56.5181 89.4069 56.7903 89.1328L60.5482 85.3414C60.8074 85.0797 61.1151 84.8725 61.4538 84.7309C61.7925 84.5892 62.1555 84.5165 62.522 84.5165H64.2793L69.3144 77.1773L57.286 70.4345C56.9808 70.2635 56.7192 70.0234 56.5216 69.7331C56.3241 69.4428 56.196 69.1101 56.1475 68.7614C56.0991 68.4126 56.1315 68.0573 56.2422 67.7233C56.353 67.3893 56.5391 67.0859 56.7859 66.8368L59.693 63.9037C60.041 63.5526 60.4748 63.3006 60.9504 63.1732C61.4261 63.0458 61.9267 63.0475 62.4015 63.1783L78.3217 67.5577L85.5852 61.3603C86.4982 60.5812 87.5738 60.02 88.7316 59.7185C89.8895 59.417 91.1 59.3852 92.2727 59.6211Z" fill="white"/>
</g>
</g>
<defs>
<clipPath id="clip0_47_780">
<rect width="150" height="150" fill="white"/>
</clipPath>
</defs>
</svg>
