<svg width="20" height="20" viewBox="0 0 20 20" fill="none" xmlns="http://www.w3.org/2000/svg">
<path d="M4.73828 3.80078C6.027 3.21171 7.7759 3.35558 9.45898 5.10449L9.99902 5.66602L10.54 5.10449C12.223 3.35567 13.972 3.21144 15.2607 3.80078C16.5968 4.41185 17.583 5.8701 17.583 7.61523C17.5829 9.40676 16.8511 10.7897 15.791 11.9834C14.9767 12.9003 14.0036 13.6709 13.0322 14.4209L12.0674 15.1689L12.0664 15.1699C11.6274 15.5167 11.2428 15.8143 10.875 16.0293C10.5068 16.2445 10.2254 16.333 9.99902 16.333C9.77291 16.3329 9.49222 16.2445 9.12402 16.0293C8.93988 15.9217 8.75177 15.7931 8.55469 15.6484L7.93164 15.1699C6.66132 14.1682 5.29403 13.2062 4.20801 11.9834C3.14766 10.7895 2.41604 9.40633 2.41602 7.61426C2.41602 5.86863 3.40232 4.41151 4.73828 3.80078Z" fill="#60B5FF" stroke="#60B5FF" stroke-width="1.5"/>
</svg>
