<svg width="20" height="20" viewBox="0 0 20 20" fill="none" xmlns="http://www.w3.org/2000/svg">
<path d="M1.66602 15.8332V10.8332C1.66602 10.4582 1.7424 10.1179 1.89518 9.81234C2.04796 9.50678 2.24935 9.23595 2.49935 8.99984V6.6665C2.49935 5.97206 2.7424 5.38178 3.22852 4.89567C3.71463 4.40956 4.3049 4.1665 4.99935 4.1665H8.33268C8.65213 4.1665 8.95074 4.22567 9.22852 4.344C9.50629 4.46234 9.76324 4.62539 9.99935 4.83317C10.2355 4.62484 10.4924 4.46178 10.7702 4.344C11.048 4.22623 11.3466 4.16706 11.666 4.1665H14.9993C15.6938 4.1665 16.2841 4.40956 16.7702 4.89567C17.2563 5.38178 17.4993 5.97206 17.4993 6.6665V8.99984C17.7493 9.23595 17.9507 9.50678 18.1035 9.81234C18.2563 10.1179 18.3327 10.4582 18.3327 10.8332V15.8332H16.666V14.1665H3.33268V15.8332H1.66602ZM10.8327 8.33317H15.8327V6.6665C15.8327 6.43039 15.7527 6.23262 15.5927 6.07317C15.4327 5.91373 15.2349 5.83373 14.9993 5.83317H11.666C11.4299 5.83317 11.2321 5.91317 11.0727 6.07317C10.9132 6.23317 10.8332 6.43095 10.8327 6.6665V8.33317ZM4.16602 8.33317H9.16602V6.6665C9.16602 6.43039 9.08602 6.23262 8.92602 6.07317C8.76602 5.91373 8.56824 5.83373 8.33268 5.83317H4.99935C4.76324 5.83317 4.56546 5.91317 4.40602 6.07317C4.24657 6.23317 4.16657 6.43095 4.16602 6.6665V8.33317ZM3.33268 12.4998H16.666V10.8332C16.666 10.5971 16.586 10.3993 16.426 10.2398C16.266 10.0804 16.0682 10.0004 15.8327 9.99984H4.16602C3.9299 9.99984 3.73213 10.0798 3.57268 10.2398C3.41324 10.3998 3.33324 10.5976 3.33268 10.8332V12.4998Z" fill="#063579"/>
</svg>
