<svg width="25" height="24" viewBox="0 0 25 24" fill="none" xmlns="http://www.w3.org/2000/svg">
<path fill-rule="evenodd" clip-rule="evenodd" d="M12.854 1.9458C12.742 1.9458 12.4663 1.97823 12.3198 2.28698L10.0724 7.0233C9.7167 7.77182 9.03115 8.29202 8.23852 8.41137L3.20704 9.17546C2.87473 9.22605 2.7615 9.48551 2.72704 9.59448C2.69627 9.69956 2.64703 9.96679 2.87596 10.1977L6.51418 13.8819C7.09388 14.4696 7.35727 15.3167 7.21942 16.1457L6.36279 21.3477C6.30987 21.6733 6.5031 21.8627 6.58926 21.9276C6.68034 22.0002 6.92403 22.1442 7.22558 21.9782L11.7241 19.5199C12.4331 19.1346 13.2774 19.1346 13.9839 19.5199L18.4812 21.9769C18.7839 22.1416 19.0276 21.9976 19.1199 21.9276C19.2061 21.8627 19.3993 21.6733 19.3464 21.3477L18.4873 16.1457C18.3495 15.3167 18.6129 14.4696 19.1926 13.8819L22.8308 10.1977C23.0609 9.96679 23.0117 9.69826 22.9797 9.59448C22.9465 9.48551 22.8332 9.22605 22.5009 9.17546L17.4695 8.41137C16.6781 8.29202 15.9925 7.77182 15.6368 7.022L13.3869 2.28698C13.2417 1.97823 12.966 1.9458 12.854 1.9458M6.94019 23.9994C6.43187 23.9994 5.92724 23.8308 5.49524 23.4987C4.74938 22.9227 4.38383 21.9718 4.5426 21.0144L5.39923 15.8124C5.43124 15.6191 5.36846 15.4232 5.23308 15.2857L1.59486 11.6014C0.925307 10.9256 0.685302 9.92668 0.968384 8.99913C1.25393 8.06121 2.00963 7.39052 2.94134 7.25042L7.97282 6.48633C8.16729 6.45779 8.33467 6.33195 8.41837 6.15293L10.667 1.41532C11.0818 0.542257 11.9187 0 12.8517 0V0C13.7846 0 14.6216 0.542257 15.0363 1.41532L17.2862 6.15163C17.3711 6.33195 17.5373 6.45779 17.7305 6.48633L22.762 7.25042C23.6937 7.39052 24.4494 8.06121 24.735 8.99913C25.0181 9.92668 24.7768 10.9256 24.1073 11.6014L20.469 15.2857C20.3337 15.4232 20.2721 15.6191 20.3041 15.8111L21.162 21.0144C21.3195 21.9731 20.954 22.924 20.2069 23.4987C19.45 24.0837 18.4641 24.1629 17.6284 23.7036L13.1323 21.2479C12.9563 21.1519 12.7458 21.1519 12.5698 21.2479L8.07374 23.7049C7.71435 23.9021 7.32665 23.9994 6.94019 23.9994" fill="#FFE344"/>
</svg>
