<svg width="30" height="30" viewBox="0 0 30 30" fill="none" xmlns="http://www.w3.org/2000/svg">
<path d="M4.6875 8.75C4.6875 8.50136 4.78627 8.2629 4.96209 8.08709C5.1379 7.91127 5.37636 7.8125 5.625 7.8125H24.375C24.6236 7.8125 24.8621 7.91127 25.0379 8.08709C25.2137 8.2629 25.3125 8.50136 25.3125 8.75C25.3125 8.99864 25.2137 9.2371 25.0379 9.41291C24.8621 9.58873 24.6236 9.6875 24.375 9.6875H5.625C5.37636 9.6875 5.1379 9.58873 4.96209 9.41291C4.78627 9.2371 4.6875 8.99864 4.6875 8.75ZM7.8125 15C7.8125 14.7514 7.91127 14.5129 8.08709 14.3371C8.2629 14.1613 8.50136 14.0625 8.75 14.0625H21.25C21.4986 14.0625 21.7371 14.1613 21.9129 14.3371C22.0887 14.5129 22.1875 14.7514 22.1875 15C22.1875 15.2486 22.0887 15.4871 21.9129 15.6629C21.7371 15.8387 21.4986 15.9375 21.25 15.9375H8.75C8.50136 15.9375 8.2629 15.8387 8.08709 15.6629C7.91127 15.4871 7.8125 15.2486 7.8125 15ZM11.5625 21.25C11.5625 21.0014 11.6613 20.7629 11.8371 20.5871C12.0129 20.4113 12.2514 20.3125 12.5 20.3125H17.5C17.7486 20.3125 17.9871 20.4113 18.1629 20.5871C18.3387 20.7629 18.4375 21.0014 18.4375 21.25C18.4375 21.4986 18.3387 21.7371 18.1629 21.9129C17.9871 22.0887 17.7486 22.1875 17.5 22.1875H12.5C12.2514 22.1875 12.0129 22.0887 11.8371 21.9129C11.6613 21.7371 11.5625 21.4986 11.5625 21.25Z" fill="#757575"/>
</svg>
