<svg width="20" height="20" viewBox="0 0 20 20" fill="none" xmlns="http://www.w3.org/2000/svg">
<path d="M6.63333 6.0475C7.7975 5.175 9.42667 4.78834 11.0067 5.11501C12.0433 5.33 13.2483 5.77501 14.2042 6.77501C15.1742 7.78917 15.7958 9.27834 15.8325 11.3983C15.8642 13.2117 15.0067 15.165 13.8558 16.5083C13.2758 17.1858 12.5783 17.7608 11.8142 18.075C11.0333 18.3975 10.1517 18.4575 9.32 18.0267C8.57583 17.6417 8.08583 17.14 7.845 16.515C7.61333 15.9158 7.65917 15.3217 7.7325 14.855L7.76583 14.6625L7.86 14.1875C7.90167 13.9792 7.93417 13.805 7.95083 13.6442C7.98417 13.325 7.94417 13.1583 7.8675 13.0392C7.6825 12.7525 7.4475 12.5808 7.10083 12.3558L6.64333 12.06L6.42167 11.9083C5.89667 11.5325 5.34 10.9975 5.11 10.0425C4.70583 8.37167 5.45167 6.93417 6.63333 6.0475ZM10.6692 6.74751C9.54833 6.51584 8.40833 6.80001 7.6325 7.38084C6.87583 7.94834 6.51167 8.74834 6.73 9.65167C6.83333 10.0792 7.0525 10.3158 7.42917 10.5792L7.65917 10.7317L8.05167 10.9817C8.45333 11.2458 8.92667 11.6067 9.26833 12.1367C9.63917 12.7117 9.66 13.3217 9.60833 13.8167C9.59109 13.9773 9.56718 14.1372 9.53667 14.2958L9.405 14.9625L9.37917 15.1142C9.32 15.4908 9.32917 15.7308 9.39917 15.915C9.46 16.0717 9.61 16.3 10.0858 16.5467C10.3892 16.7033 10.7442 16.7142 11.1775 16.535C11.6275 16.3492 12.1225 15.97 12.59 15.425C13.5342 14.3225 14.19 12.7517 14.1658 11.4275C14.135 9.63251 13.6208 8.57667 12.9992 7.92667C12.365 7.26251 11.5242 6.92417 10.6692 6.74751ZM4.16667 2.91667C4.60869 2.91667 5.03262 3.09227 5.34518 3.40483C5.65774 3.71739 5.83333 4.14131 5.83333 4.58334C5.83333 5.02537 5.65774 5.44929 5.34518 5.76185C5.03262 6.07441 4.60869 6.25 4.16667 6.25C3.72464 6.25 3.30072 6.07441 2.98816 5.76185C2.67559 5.44929 2.5 5.02537 2.5 4.58334C2.5 4.14131 2.67559 3.71739 2.98816 3.40483C3.30072 3.09227 3.72464 2.91667 4.16667 2.91667ZM15.4167 3.75001C15.6377 3.75001 15.8496 3.8378 16.0059 3.99408C16.1622 4.15036 16.25 4.36232 16.25 4.58334C16.25 4.80435 16.1622 5.01631 16.0059 5.17259C15.8496 5.32887 15.6377 5.41667 15.4167 5.41667C15.1957 5.41667 14.9837 5.32887 14.8274 5.17259C14.6711 5.01631 14.5833 4.80435 14.5833 4.58334C14.5833 4.36232 14.6711 4.15036 14.8274 3.99408C14.9837 3.8378 15.1957 3.75001 15.4167 3.75001ZM7.91667 1.66667C8.08082 1.66667 8.24336 1.699 8.39502 1.76182C8.54668 1.82464 8.68448 1.91672 8.80055 2.03279C8.91662 2.14886 9.0087 2.28666 9.07152 2.43832C9.13433 2.58997 9.16667 2.75252 9.16667 2.91667C9.16667 3.08082 9.13433 3.24337 9.07152 3.39503C9.0087 3.54668 8.91662 3.68448 8.80055 3.80056C8.68448 3.91663 8.54668 4.0087 8.39502 4.07152C8.24336 4.13434 8.08082 4.16667 7.91667 4.16667C7.58515 4.16667 7.2672 4.03498 7.03278 3.80056C6.79836 3.56613 6.66667 3.24819 6.66667 2.91667C6.66667 2.58515 6.79836 2.26721 7.03278 2.03279C7.2672 1.79837 7.58515 1.66667 7.91667 1.66667ZM12.0833 1.66667C12.2475 1.66667 12.41 1.699 12.5617 1.76182C12.7133 1.82464 12.8511 1.91672 12.9672 2.03279C13.0833 2.14886 13.1754 2.28666 13.2382 2.43832C13.301 2.58997 13.3333 2.75252 13.3333 2.91667C13.3333 3.08082 13.301 3.24337 13.2382 3.39503C13.1754 3.54668 13.0833 3.68448 12.9672 3.80056C12.8511 3.91663 12.7133 4.0087 12.5617 4.07152C12.41 4.13434 12.2475 4.16667 12.0833 4.16667C11.7518 4.16667 11.4339 4.03498 11.1994 3.80056C10.965 3.56613 10.8333 3.24819 10.8333 2.91667C10.8333 2.58515 10.965 2.26721 11.1994 2.03279C11.4339 1.79837 11.7518 1.66667 12.0833 1.66667Z" fill="white"/>
</svg>
