<svg width="15" height="19" viewBox="0 0 15 19" fill="none" xmlns="http://www.w3.org/2000/svg">
<path d="M4.63333 5.04783C5.7975 4.17533 7.42667 3.78866 9.00667 4.11533C10.0433 4.33033 11.2483 4.77533 12.2042 5.77533C13.1742 6.78949 13.7958 8.27866 13.8325 10.3987C13.8642 12.212 13.0067 14.1653 11.8558 15.5087C11.2758 16.1862 10.5783 16.7612 9.81417 17.0753C9.03333 17.3978 8.15167 17.4578 7.32 17.027C6.57583 16.642 6.08583 16.1403 5.845 15.5153C5.61333 14.9162 5.65917 14.322 5.7325 13.8553L5.76583 13.6628L5.86 13.1878C5.90167 12.9795 5.93417 12.8053 5.95083 12.6445C5.98417 12.3253 5.94417 12.1587 5.8675 12.0395C5.6825 11.7528 5.4475 11.5812 5.10083 11.3562L4.64333 11.0603L4.42167 10.9087C3.89667 10.5328 3.34 9.99782 3.11 9.04282C2.70583 7.37199 3.45167 5.93449 4.63333 5.04783ZM8.66917 5.74783C7.54833 5.51616 6.40833 5.80033 5.6325 6.38116C4.87583 6.94866 4.51167 7.74866 4.73 8.65199C4.83333 9.07949 5.0525 9.31616 5.42917 9.57949L5.65917 9.73199L6.05167 9.98199C6.45333 10.2462 6.92667 10.607 7.26833 11.137C7.63917 11.712 7.66 12.322 7.60833 12.817C7.59109 12.9776 7.56718 13.1375 7.53667 13.2962L7.405 13.9628L7.37917 14.1145C7.32 14.4912 7.32917 14.7312 7.39917 14.9153C7.46 15.072 7.61 15.3003 8.08583 15.547C8.38917 15.7037 8.74417 15.7145 9.1775 15.5353C9.6275 15.3495 10.1225 14.9703 10.59 14.4253C11.5342 13.3228 12.19 11.752 12.1658 10.4278C12.135 8.63283 11.6208 7.57699 10.9992 6.92699C10.365 6.26283 9.52417 5.92449 8.66917 5.74783ZM2.16667 1.91699C2.60869 1.91699 3.03262 2.09259 3.34518 2.40515C3.65774 2.71771 3.83333 3.14163 3.83333 3.58366C3.83333 4.02569 3.65774 4.44961 3.34518 4.76217C3.03262 5.07473 2.60869 5.25033 2.16667 5.25033C1.72464 5.25033 1.30072 5.07473 0.988155 4.76217C0.675595 4.44961 0.5 4.02569 0.5 3.58366C0.5 3.14163 0.675595 2.71771 0.988155 2.40515C1.30072 2.09259 1.72464 1.91699 2.16667 1.91699ZM13.4167 2.75033C13.6377 2.75033 13.8496 2.83812 14.0059 2.9944C14.1622 3.15068 14.25 3.36265 14.25 3.58366C14.25 3.80467 14.1622 4.01663 14.0059 4.17291C13.8496 4.32919 13.6377 4.41699 13.4167 4.41699C13.1957 4.41699 12.9837 4.32919 12.8274 4.17291C12.6711 4.01663 12.5833 3.80467 12.5833 3.58366C12.5833 3.36265 12.6711 3.15068 12.8274 2.9944C12.9837 2.83812 13.1957 2.75033 13.4167 2.75033ZM5.91667 0.666992C6.08082 0.666992 6.24336 0.699324 6.39502 0.762143C6.54668 0.824961 6.68448 0.917036 6.80055 1.03311C6.91662 1.14918 7.0087 1.28698 7.07152 1.43864C7.13433 1.59029 7.16667 1.75284 7.16667 1.91699C7.16667 2.08114 7.13433 2.24369 7.07152 2.39535C7.0087 2.547 6.91662 2.6848 6.80055 2.80088C6.68448 2.91695 6.54668 3.00902 6.39502 3.07184C6.24336 3.13466 6.08082 3.16699 5.91667 3.16699C5.58515 3.16699 5.2672 3.0353 5.03278 2.80088C4.79836 2.56646 4.66667 2.24851 4.66667 1.91699C4.66667 1.58547 4.79836 1.26753 5.03278 1.03311C5.2672 0.798688 5.58515 0.666992 5.91667 0.666992ZM10.0833 0.666992C10.2475 0.666992 10.41 0.699324 10.5617 0.762143C10.7133 0.824961 10.8511 0.917036 10.9672 1.03311C11.0833 1.14918 11.1754 1.28698 11.2382 1.43864C11.301 1.59029 11.3333 1.75284 11.3333 1.91699C11.3333 2.08114 11.301 2.24369 11.2382 2.39535C11.1754 2.547 11.0833 2.6848 10.9672 2.80088C10.8511 2.91695 10.7133 3.00902 10.5617 3.07184C10.41 3.13466 10.2475 3.16699 10.0833 3.16699C9.75181 3.16699 9.43387 3.0353 9.19945 2.80088C8.96503 2.56646 8.83333 2.24851 8.83333 1.91699C8.83333 1.58547 8.96503 1.26753 9.19945 1.03311C9.43387 0.798688 9.75181 0.666992 10.0833 0.666992Z" fill="black"/>
</svg>
