<svg width="21" height="20" viewBox="0 0 21 20" fill="none" xmlns="http://www.w3.org/2000/svg">
<path d="M16.75 0.5C18.5442 0.5 20 1.95583 20 3.75C20 4.57597 19.4961 5.69093 18.7969 6.80957C18.1144 7.90139 17.3061 8.9021 16.8154 9.47754C16.7873 9.50973 16.7557 9.51626 16.7344 9.51172L16.6826 9.5H13C12.0325 9.5 11.25 10.2825 11.25 11.25C11.25 12.2175 12.0325 13 13 13H16.75C18.5442 13 20 14.4558 20 16.25C20 18.0442 18.5442 19.5 16.75 19.5H7.02637C7.08539 19.4268 7.1459 19.3527 7.20605 19.2764L7.52441 18.8633L7.52539 18.8623C7.72679 18.5938 7.93147 18.3026 8.13379 18H16.75C17.7175 18 18.5 17.2175 18.5 16.25C18.5 15.2825 17.7175 14.5 16.75 14.5H13C11.2058 14.5 9.75 13.0442 9.75 11.25C9.75 9.45583 11.2058 8 13 8H15.4893L14.9707 7.22266C14.57 6.62161 14.1974 5.98655 13.9268 5.37598C13.6531 4.75856 13.5 4.2023 13.5 3.75C13.5 1.95583 14.9558 0.5 16.75 0.5ZM4.25 10.5C6.04417 10.5 7.5 11.9558 7.5 13.75C7.5 14.2285 7.32837 14.804 7.02734 15.4326C6.8039 15.8992 6.51955 16.3742 6.21094 16.8311L5.89551 17.2803C5.59036 17.6995 5.27875 18.0905 4.99414 18.4297L4.71973 18.751L4.71777 18.7529L4.69922 18.7744C4.552 18.941 4.42022 19.0878 4.30859 19.2109L4.30566 19.2129L4.29688 19.2207C4.27467 19.2375 4.24383 19.242 4.21484 19.2275L4.18652 19.2061C3.70259 18.6797 2.89335 17.747 2.20801 16.7109C1.50569 15.6492 1 14.5762 1 13.75C1 11.9558 2.45583 10.5 4.25 10.5ZM4.25 12C3.84377 12 3.45207 12.1412 3.14062 12.3965L3.0127 12.5127C2.68451 12.8409 2.5 13.2859 2.5 13.75C2.5 14.1562 2.6412 14.5479 2.89648 14.8594L3.0127 14.9873C3.34088 15.3155 3.78587 15.5 4.25 15.5C4.71413 15.5 5.15912 15.3155 5.4873 14.9873C5.81549 14.6591 6 14.2141 6 13.75C6 13.3438 5.8588 12.9521 5.60352 12.6406L5.4873 12.5127C5.15912 12.1845 4.71413 12 4.25 12ZM16.75 2C16.3438 2 15.9521 2.1412 15.6406 2.39648L15.5127 2.5127C15.1845 2.84088 15 3.28587 15 3.75C15 4.15623 15.1412 4.54793 15.3965 4.85938L15.5127 4.9873C15.8409 5.31549 16.2859 5.5 16.75 5.5C17.2141 5.5 17.6591 5.31549 17.9873 4.9873C18.3155 4.65912 18.5 4.21413 18.5 3.75C18.5 3.34377 18.3588 2.95207 18.1035 2.64062L17.9873 2.5127C17.6591 2.18451 17.2141 2 16.75 2Z" fill="#989B9D" stroke="#989B9D"/>
</svg>
