<svg width="43" height="43" viewBox="0 0 43 43" fill="none" xmlns="http://www.w3.org/2000/svg">
<path d="M26.1494 11.9441C26.3144 12.1088 26.4453 12.3044 26.5346 12.5197C26.6239 12.7351 26.6699 12.9659 26.6699 13.1991C26.6699 13.4322 26.6239 13.663 26.5346 13.8784C26.4453 14.0937 26.3144 14.2893 26.1494 14.454L19.2428 21.3606L26.1494 28.2672C26.4822 28.6 26.6692 29.0514 26.6692 29.5221C26.6692 29.9928 26.4822 30.4442 26.1494 30.777C25.8165 31.1099 25.3651 31.2968 24.8944 31.2968C24.4237 31.2968 23.9723 31.1099 23.6395 30.777L15.4691 22.6066C15.3041 22.4419 15.1731 22.2463 15.0838 22.031C14.9945 21.8156 14.9485 21.5848 14.9485 21.3517C14.9485 21.1185 14.9945 20.8877 15.0838 20.6724C15.1731 20.457 15.3041 20.2614 15.4691 20.0967L23.6395 11.9263C24.3159 11.2499 25.4551 11.2499 26.1494 11.9441Z" fill="#989B9D"/>
</svg>
