<svg width="12" height="20" viewBox="0 0 12 20" fill="none" xmlns="http://www.w3.org/2000/svg">
<path d="M10.7361 19.1147C10.8922 18.9589 11.016 18.7739 11.1005 18.5702C11.185 18.3665 11.2285 18.1481 11.2285 17.9276C11.2285 17.707 11.185 17.4886 11.1005 17.2849C11.016 17.0812 10.8922 16.8962 10.7361 16.7404L4.20253 10.2069L10.7361 3.67333C11.0509 3.35848 11.2278 2.93145 11.2278 2.48618C11.2278 2.04091 11.0509 1.61388 10.7361 1.29903C10.4212 0.984175 9.99419 0.807296 9.54892 0.807296C9.10365 0.807296 8.67662 0.984175 8.36177 1.29903L0.63266 9.02814C0.476556 9.18392 0.352709 9.36896 0.268209 9.57267C0.183708 9.77638 0.140214 9.99475 0.140214 10.2153C0.140214 10.4358 0.183708 10.6542 0.268209 10.8579C0.352709 11.0616 0.476556 11.2467 0.63266 11.4024L8.36177 19.1315C9.00165 19.7714 10.0793 19.7714 10.7361 19.1147Z" fill="#4DA0FF"/>
</svg>
