<svg width="12" height="20" viewBox="0 0 12 20" fill="none" xmlns="http://www.w3.org/2000/svg">
<path d="M11.4671 19.4738C11.636 19.3081 11.77 19.1113 11.8615 18.8946C11.9529 18.6779 12 18.4456 12 18.211C12 17.9764 11.9529 17.7442 11.8615 17.5275C11.77 17.3108 11.636 17.114 11.4671 16.9482L4.39633 9.99844L11.4671 3.04864C11.8078 2.71372 11.9992 2.25949 11.9992 1.78585C11.9992 1.31221 11.8078 0.857972 11.4671 0.52306C11.1263 0.188148 10.6642 0 10.1823 0C9.70042 0 9.23828 0.188148 8.89754 0.52306L0.532935 8.74461C0.363996 8.91032 0.229967 9.10715 0.138518 9.32384C0.0470699 9.54052 0 9.77281 0 10.0074C0 10.242 0.0470699 10.4743 0.138518 10.691C0.229967 10.9076 0.363996 11.1045 0.532935 11.2702L8.89754 19.4917C9.59004 20.1724 10.7563 20.1724 11.4671 19.4738Z" fill="#4DA0FF"/>
</svg>
