<svg width="12" height="20" viewBox="0 0 12 20" fill="none" xmlns="http://www.w3.org/2000/svg">
<path d="M11.4671 0.526183C11.636 0.691892 11.77 0.888723 11.8615 1.10541C11.9529 1.3221 12 1.55438 12 1.78897C12 2.02356 11.9529 2.25584 11.8615 2.47253C11.77 2.68922 11.636 2.88605 11.4671 3.05176L4.39633 10.0016L11.4671 16.9514C11.8078 17.2863 11.9992 17.7405 11.9992 18.2141C11.9992 18.6878 11.8078 19.142 11.4671 19.4769C11.1263 19.8119 10.6642 20 10.1823 20C9.70042 20 9.23828 19.8119 8.89754 19.4769L0.532936 11.2554C0.363997 11.0897 0.229967 10.8929 0.138519 10.6762C0.0470703 10.4595 2.61014e-07 10.2272 2.61014e-07 9.9926C2.61014e-07 9.75802 0.0470703 9.52573 0.138519 9.30904C0.229967 9.09236 0.363997 8.89553 0.532936 8.72982L8.89754 0.508271C9.59004 -0.17238 10.7563 -0.17238 11.4671 0.526183Z" fill="#989B9D"/>
</svg>
