<svg width="20" height="20" viewBox="0 0 20 20" fill="none" xmlns="http://www.w3.org/2000/svg">
<rect x="0.75" y="3.75" width="17.9052" height="12.1062" rx="2.25" stroke="#989B9D" stroke-width="1.5"/>
<path d="M1.71728 5.24173C1.53499 5.1112 1.42706 4.87879 1.43831 4.64103L1.44472 4.50554C1.45551 4.27762 1.60946 4.10111 1.80941 4.08741C1.89956 4.08124 1.9907 4.10919 2.06878 4.16695L10.0416 10.0652C10.1793 10.167 10.2608 10.3438 10.2539 10.5251C10.2398 10.8935 9.88687 11.0918 9.60469 10.8897L1.71728 5.24173Z" fill="#989B9D"/>
<path d="M17.3442 4.38909C17.4142 4.33688 17.4958 4.31075 17.577 4.31455L17.6161 4.31637C17.7802 4.32404 17.9081 4.46707 17.9177 4.65359C17.9248 4.79269 17.8642 4.92947 17.7597 5.00996L10.1847 10.8442C9.91349 11.0531 9.56109 10.8692 9.54107 10.5085C9.53116 10.3298 9.61012 10.1541 9.74571 10.053L17.3442 4.38909Z" fill="#989B9D"/>
<path d="M6.94274 8.93304C7.09331 8.78549 7.31417 8.80132 7.43952 8.96863C7.56513 9.13628 7.54851 9.39416 7.40219 9.5481L2.04489 15.1841C1.83536 15.4046 1.51484 15.3814 1.34302 15.1335C1.17961 14.8976 1.21331 14.5473 1.41878 14.346L6.94274 8.93304Z" fill="#989B9D"/>
<path d="M12.3683 8.70371C12.2182 8.55707 11.9985 8.57259 11.8733 8.73866C11.7467 8.90649 11.7635 9.16568 11.9109 9.31952L17.8001 15.4642C18.0102 15.6833 18.3299 15.6594 18.5015 15.4118C18.6654 15.1754 18.6313 14.8241 18.4251 14.6226L12.3683 8.70371Z" fill="#989B9D"/>
</svg>
