<svg width="18" height="16" viewBox="0 0 18 16" fill="none" xmlns="http://www.w3.org/2000/svg">
<path d="M3.73877 1.80078C5.02749 1.21171 6.77639 1.35558 8.45947 3.10449L8.99951 3.66602L9.54053 3.10449C11.2235 1.35567 12.9725 1.21144 14.2612 1.80078C15.5973 2.41185 16.5835 3.8701 16.5835 5.61523C16.5834 7.40676 15.8516 8.78971 14.7915 9.9834C13.9771 10.9003 13.0041 11.6709 12.0327 12.4209L11.0679 13.1689L11.0669 13.1699C10.6279 13.5167 10.2433 13.8143 9.87549 14.0293C9.50731 14.2445 9.22589 14.333 8.99951 14.333C8.7734 14.3329 8.4927 14.2445 8.12451 14.0293C7.94037 13.9217 7.75226 13.7931 7.55518 13.6484L6.93213 13.1699C5.6618 12.1682 4.29452 11.2062 3.2085 9.9834C2.14815 8.7895 1.41653 7.40633 1.4165 5.61426C1.4165 3.86863 2.40281 2.41151 3.73877 1.80078Z" fill="#FF9149" stroke="#FF9149" stroke-width="1.5"/>
</svg>
