<svg width="20" height="20" viewBox="0 0 20 20" fill="none" xmlns="http://www.w3.org/2000/svg">
<g clip-path="url(#clip0_66_1313)">
<path d="M16.25 0.5C18.0442 0.5 19.5 1.95583 19.5 3.75C19.5 4.57597 18.9961 5.69093 18.2969 6.80957C17.6144 7.90139 16.8061 8.9021 16.3154 9.47754C16.2873 9.50973 16.2557 9.51626 16.2344 9.51172L16.1826 9.5H12.5C11.5325 9.5 10.75 10.2825 10.75 11.25C10.75 12.2175 11.5325 13 12.5 13H16.25C18.0442 13 19.5 14.4558 19.5 16.25C19.5 18.0442 18.0442 19.5 16.25 19.5H6.52637C6.58539 19.4268 6.6459 19.3527 6.70605 19.2764L7.02441 18.8633L7.02539 18.8623C7.22679 18.5938 7.43147 18.3026 7.63379 18H16.25C17.2175 18 18 17.2175 18 16.25C18 15.2825 17.2175 14.5 16.25 14.5H12.5C10.7058 14.5 9.25 13.0442 9.25 11.25C9.25 9.45583 10.7058 8 12.5 8H14.9893L14.4707 7.22266C14.07 6.62161 13.6974 5.98655 13.4268 5.37598C13.1531 4.75856 13 4.2023 13 3.75C13 1.95583 14.4558 0.5 16.25 0.5ZM3.75 10.5C5.54417 10.5 7 11.9558 7 13.75C7 14.2285 6.82837 14.804 6.52734 15.4326C6.3039 15.8992 6.01955 16.3742 5.71094 16.8311L5.39551 17.2803C5.09036 17.6995 4.77875 18.0905 4.49414 18.4297L4.21973 18.751L4.21777 18.7529L4.19922 18.7744C4.052 18.941 3.92022 19.0878 3.80859 19.2109L3.80566 19.2129L3.79688 19.2207C3.77467 19.2375 3.74383 19.242 3.71484 19.2275L3.68652 19.2061C3.20259 18.6797 2.39335 17.747 1.70801 16.7109C1.00569 15.6492 0.5 14.5762 0.5 13.75C0.5 11.9558 1.95583 10.5 3.75 10.5ZM3.75 12C3.34377 12 2.95207 12.1412 2.64062 12.3965L2.5127 12.5127C2.18451 12.8409 2 13.2859 2 13.75C2 14.1562 2.1412 14.5479 2.39648 14.8594L2.5127 14.9873C2.84088 15.3155 3.28587 15.5 3.75 15.5C4.21413 15.5 4.65912 15.3155 4.9873 14.9873C5.31549 14.6591 5.5 14.2141 5.5 13.75C5.5 13.3438 5.3588 12.9521 5.10352 12.6406L4.9873 12.5127C4.65912 12.1845 4.21413 12 3.75 12ZM16.25 2C15.8438 2 15.4521 2.1412 15.1406 2.39648L15.0127 2.5127C14.6845 2.84088 14.5 3.28587 14.5 3.75C14.5 4.15623 14.6412 4.54793 14.8965 4.85938L15.0127 4.9873C15.3409 5.31549 15.7859 5.5 16.25 5.5C16.7141 5.5 17.1591 5.31549 17.4873 4.9873C17.8155 4.65912 18 4.21413 18 3.75C18 3.34377 17.8588 2.95207 17.6035 2.64062L17.4873 2.5127C17.1591 2.18451 16.7141 2 16.25 2Z" fill="white" stroke="white"/>
</g>
<defs>
<clipPath id="clip0_66_1313">
<rect width="20" height="20" fill="white"/>
</clipPath>
</defs>
</svg>
