<svg width="80" height="80" viewBox="0 0 80 80" fill="none" xmlns="http://www.w3.org/2000/svg">
<circle cx="40" cy="40" r="40" fill="#4DA0FF"/>
<path fill-rule="evenodd" clip-rule="evenodd" d="M24.6654 16.6668C24.6654 16.3132 24.5249 15.9741 24.2748 15.724C24.0248 15.474 23.6857 15.3335 23.332 15.3335C22.9784 15.3335 22.6393 15.474 22.3892 15.724C22.1392 15.9741 21.9987 16.3132 21.9987 16.6668V18.6668H19.9987C19.6451 18.6668 19.3059 18.8073 19.0559 19.0574C18.8058 19.3074 18.6654 19.6465 18.6654 20.0002C18.6654 20.3538 18.8058 20.6929 19.0559 20.943C19.3059 21.193 19.6451 21.3335 19.9987 21.3335H21.9987V23.3335C21.9987 23.5086 22.0332 23.682 22.1002 23.8437C22.1672 24.0055 22.2654 24.1525 22.3892 24.2763C22.513 24.4001 22.66 24.4983 22.8218 24.5653C22.9836 24.6323 23.1569 24.6668 23.332 24.6668C23.5071 24.6668 23.6805 24.6323 23.8423 24.5653C24.004 24.4983 24.151 24.4001 24.2748 24.2763C24.3987 24.1525 24.4969 24.0055 24.5639 23.8437C24.6309 23.682 24.6654 23.5086 24.6654 23.3335V21.3335H26.6654C27.019 21.3335 27.3581 21.193 27.6082 20.943C27.8582 20.6929 27.9987 20.3538 27.9987 20.0002C27.9987 19.6465 27.8582 19.3074 27.6082 19.0574C27.3581 18.8073 27.019 18.6668 26.6654 18.6668H24.6654V16.6668ZM34.6654 26.6668C34.6654 26.4917 34.6309 26.3184 34.5639 26.1566C34.4969 25.9948 34.3987 25.8478 34.2748 25.724C34.151 25.6002 34.004 25.502 33.8423 25.435C33.6805 25.368 33.5071 25.3335 33.332 25.3335C33.1569 25.3335 32.9836 25.368 32.8218 25.435C32.66 25.502 32.513 25.6002 32.3892 25.724C32.2654 25.8478 32.1672 25.9948 32.1002 26.1566C32.0332 26.3184 31.9987 26.4917 31.9987 26.6668V28.6668H29.9987C29.8236 28.6668 29.6502 28.7013 29.4885 28.7683C29.3267 28.8353 29.1797 28.9335 29.0559 29.0574C28.9321 29.1812 28.8339 29.3282 28.7669 29.4899C28.6999 29.6517 28.6654 29.8251 28.6654 30.0002C28.6654 30.1753 28.6999 30.3486 28.7669 30.5104C28.8339 30.6722 28.9321 30.8192 29.0559 30.943C29.1797 31.0668 29.3267 31.165 29.4885 31.232C29.6502 31.299 29.8236 31.3335 29.9987 31.3335H31.9987V33.3335C31.9987 33.5086 32.0332 33.682 32.1002 33.8437C32.1672 34.0055 32.2654 34.1525 32.3892 34.2763C32.513 34.4001 32.66 34.4983 32.8218 34.5653C32.9836 34.6323 33.1569 34.6668 33.332 34.6668C33.5071 34.6668 33.6805 34.6323 33.8423 34.5653C34.004 34.4983 34.151 34.4001 34.2748 34.2763C34.3987 34.1525 34.4969 34.0055 34.5639 33.8437C34.6309 33.682 34.6654 33.5086 34.6654 33.3335V31.3335H36.6654C37.019 31.3335 37.3581 31.193 37.6082 30.943C37.8582 30.6929 37.9987 30.3538 37.9987 30.0002C37.9987 29.6465 37.8582 29.3074 37.6082 29.0574C37.3581 28.8073 37.019 28.6668 36.6654 28.6668H34.6654V26.6668ZM21.332 36.6668C21.332 36.3132 21.1916 35.9741 20.9415 35.724C20.6915 35.474 20.3523 35.3335 19.9987 35.3335C19.6451 35.3335 19.3059 35.474 19.0559 35.724C18.8058 35.9741 18.6654 36.3132 18.6654 36.6668V38.6668H16.6654C16.3117 38.6668 15.9726 38.8073 15.7226 39.0574C15.4725 39.3074 15.332 39.6465 15.332 40.0002C15.332 40.3538 15.4725 40.6929 15.7226 40.943C15.9726 41.193 16.3117 41.3335 16.6654 41.3335H18.6654V43.3335C18.6654 43.6871 18.8058 44.0263 19.0559 44.2763C19.3059 44.5264 19.6451 44.6668 19.9987 44.6668C20.3523 44.6668 20.6915 44.5264 20.9415 44.2763C21.1916 44.0263 21.332 43.6871 21.332 43.3335V41.3335H23.332C23.6857 41.3335 24.0248 41.193 24.2748 40.943C24.5249 40.6929 24.6654 40.3538 24.6654 40.0002C24.6654 39.6465 24.5249 39.3074 24.2748 39.0574C24.0248 38.8073 23.6857 38.6668 23.332 38.6668H21.332V36.6668ZM43.4787 18.2735L42.4854 18.1402C41.7754 18.0602 41.352 18.8868 41.762 19.4735C42.2309 20.1513 42.6631 20.8535 43.0587 21.5802C44.8115 24.8437 45.712 28.4969 45.6769 32.2012C45.6418 35.9055 44.6721 39.541 42.8578 42.7707C41.0435 46.0005 38.4432 48.7199 35.298 50.6771C32.1528 52.6343 28.5644 53.7658 24.8654 53.9668C24.1487 54.0068 23.752 54.8468 24.252 55.3568C24.4809 55.5902 24.7143 55.8191 24.952 56.0435L25.192 56.2635L26.0587 57.0168L26.6854 57.5102L27.0887 57.8102L27.712 58.2468L28.2987 58.6302C28.6987 58.8857 29.1098 59.1268 29.532 59.3535L30.412 59.8035L31.2787 60.2035L32.2887 60.6102L33.102 60.8968C34.3005 61.2906 35.5306 61.5806 36.7787 61.7635L37.8354 61.8968L38.7254 61.9635C39.1476 61.9879 39.5743 62.0002 40.0054 62.0002C43.1027 62.0009 46.1653 61.3475 48.9927 60.0829C51.8202 58.8183 54.3487 56.9709 56.4129 54.6616C58.477 52.3523 60.0303 49.6332 60.9711 46.6822C61.9118 43.7311 62.2188 40.6147 61.872 37.5368L61.7454 36.6135C61.4952 34.9986 61.0659 33.4166 60.4654 31.8968L60.0887 31.0035L59.832 30.4502L59.5854 29.9568C59.0569 28.9295 58.4484 27.9453 57.7654 27.0135L57.2554 26.3468L56.592 25.5468L56.0487 24.9468L55.6487 24.5335L55.1154 24.0068L54.372 23.3402L53.3054 22.4735L52.4887 21.8835L51.5154 21.2502L50.4454 20.6302L49.352 20.0802L48.9754 19.9068L48.1754 19.5702L47.2554 19.2235L46.4154 18.9502L45.332 18.6502L44.4487 18.4502L43.4787 18.2735ZM49.6787 32.6668C49.6793 29.3576 49.0315 26.0803 47.772 23.0202C52.2568 25.1189 55.7242 28.9133 57.4114 33.5686C59.0986 38.2238 58.8674 43.3587 56.7687 47.8435C54.67 52.3283 50.8756 55.7957 46.2203 57.4829C41.565 59.1701 36.4302 58.9389 31.9454 56.8402C36.7539 55.3272 41.0017 52.4141 44.1454 48.4735C44.4555 48.9005 44.8931 49.2183 45.3951 49.3811C45.8971 49.5439 46.4379 49.5435 46.9396 49.3798C47.4414 49.2161 47.8784 48.8976 48.1878 48.4701C48.4973 48.0426 48.6633 47.5279 48.662 47.0002C48.6625 46.4329 48.47 45.8824 48.1163 45.439C47.7625 44.9956 47.2685 44.6857 46.7154 44.5602C46.922 44.1735 47.1198 43.7791 47.3087 43.3768C47.8568 43.716 48.4762 43.9233 49.118 43.9825C49.7599 44.0418 50.4067 43.9513 51.0076 43.7182C51.6086 43.4851 52.1473 43.1158 52.5813 42.6393C53.0154 42.1627 53.3329 41.592 53.509 40.972C53.6852 40.3519 53.715 39.6995 53.5963 39.066C53.4776 38.4324 53.2135 37.8351 52.8248 37.3209C52.4361 36.8067 51.9334 36.3897 51.3563 36.1027C50.7791 35.8157 50.1433 35.6665 49.4987 35.6668C49.6143 34.6846 49.672 33.6846 49.672 32.6668" fill="white"/>
</svg>
