<svg width="20" height="23" viewBox="0 0 20 23" fill="none" xmlns="http://www.w3.org/2000/svg">
<mask id="mask0_67_1967" style="mask-type:luminance" maskUnits="userSpaceOnUse" x="2" y="3" width="16" height="15">
<path fill-rule="evenodd" clip-rule="evenodd" d="M2.5 3.43994H17.9141V17.8966H2.5V3.43994Z" fill="white"/>
</mask>
<g mask="url(#mask0_67_1967)">
<mask id="path-2-inside-1_67_1967" fill="white">
<path fill-rule="evenodd" clip-rule="evenodd" d="M10.2058 4.68994C7.29334 4.68994 5.26334 6.97161 5.26334 9.01911C5.26334 10.7516 4.78251 11.5524 4.35751 12.2591C4.01668 12.8266 3.74751 13.2749 3.74751 14.2491C3.88668 15.8208 4.92418 16.6466 10.2058 16.6466C15.4583 16.6466 16.5283 15.7841 16.6667 14.1949C16.6642 13.2749 16.395 12.8266 16.0542 12.2591C15.6292 11.5524 15.1483 10.7516 15.1483 9.01911C15.1483 6.97161 13.1183 4.68994 10.2058 4.68994M10.2058 17.8966C6.30918 17.8966 2.78751 17.6216 2.50001 14.3024C2.49751 12.9291 2.91668 12.2308 3.28668 11.6158C3.66084 10.9924 4.01334 10.4049 4.01334 9.01911C4.01334 6.32494 6.50168 3.43994 10.2058 3.43994C13.91 3.43994 16.3983 6.32494 16.3983 9.01911C16.3983 10.4049 16.7508 10.9924 17.125 11.6158C17.495 12.2308 17.9142 12.9291 17.9142 14.2491C17.6233 17.6216 14.1025 17.8966 10.2058 17.8966"/>
</mask>
<path fill-rule="evenodd" clip-rule="evenodd" d="M10.2058 4.68994C7.29334 4.68994 5.26334 6.97161 5.26334 9.01911C5.26334 10.7516 4.78251 11.5524 4.35751 12.2591C4.01668 12.8266 3.74751 13.2749 3.74751 14.2491C3.88668 15.8208 4.92418 16.6466 10.2058 16.6466C15.4583 16.6466 16.5283 15.7841 16.6667 14.1949C16.6642 13.2749 16.395 12.8266 16.0542 12.2591C15.6292 11.5524 15.1483 10.7516 15.1483 9.01911C15.1483 6.97161 13.1183 4.68994 10.2058 4.68994M10.2058 17.8966C6.30918 17.8966 2.78751 17.6216 2.50001 14.3024C2.49751 12.9291 2.91668 12.2308 3.28668 11.6158C3.66084 10.9924 4.01334 10.4049 4.01334 9.01911C4.01334 6.32494 6.50168 3.43994 10.2058 3.43994C13.91 3.43994 16.3983 6.32494 16.3983 9.01911C16.3983 10.4049 16.7508 10.9924 17.125 11.6158C17.495 12.2308 17.9142 12.9291 17.9142 14.2491C17.6233 17.6216 14.1025 17.8966 10.2058 17.8966" fill="#989B9D"/>
<path d="M4.35751 12.2591L3.07207 11.486L3.07161 11.4868L4.35751 12.2591ZM3.74751 14.2491H2.24751V14.3154L2.25336 14.3814L3.74751 14.2491ZM16.6667 14.1949L18.161 14.325L18.1669 14.2581L18.1667 14.1909L16.6667 14.1949ZM16.0542 12.2591L17.3401 11.4868L17.3396 11.486L16.0542 12.2591ZM2.50001 14.3024L1.00001 14.3052L1.00013 14.3686L1.00561 14.4319L2.50001 14.3024ZM3.28668 11.6158L4.57199 12.3891L4.57277 12.3878L3.28668 11.6158ZM17.125 11.6158L15.8389 12.3878L15.8397 12.3891L17.125 11.6158ZM17.9142 14.2491L19.4086 14.378L19.4142 14.3137V14.2491H17.9142ZM10.2058 4.68994V3.18994C6.5412 3.18994 3.76334 6.0689 3.76334 9.01911H5.26334H6.76334C6.76334 7.87432 8.04549 6.18994 10.2058 6.18994V4.68994ZM5.26334 9.01911H3.76334C3.76334 9.73996 3.66437 10.2066 3.55102 10.5369C3.43457 10.8762 3.28482 11.1323 3.07207 11.486L4.35751 12.2591L5.64295 13.0322C5.8552 12.6793 6.15837 12.1816 6.38859 11.5107C6.6219 10.8308 6.76334 10.0308 6.76334 9.01911H5.26334ZM4.35751 12.2591L3.07161 11.4868C2.91113 11.754 2.68086 12.129 2.51362 12.5928C2.33704 13.0826 2.24751 13.6133 2.24751 14.2491H3.74751H5.24751C5.24751 13.9107 5.29256 13.7302 5.33578 13.6104C5.38833 13.4646 5.46306 13.3317 5.64342 13.0314L4.35751 12.2591ZM3.74751 14.2491L2.25336 14.3814C2.30109 14.9204 2.43761 15.5396 2.82531 16.12C3.22031 16.7113 3.7846 17.1267 4.45568 17.4152C5.7035 17.9518 7.56341 18.1466 10.2058 18.1466V16.6466V15.1466C7.56662 15.1466 6.26694 14.9285 5.6408 14.6592C5.3749 14.5449 5.32361 14.4591 5.3199 14.4535C5.30887 14.437 5.26352 14.3636 5.24167 14.1168L3.74751 14.2491ZM10.2058 16.6466V18.1466C12.8393 18.1466 14.7029 17.9421 15.9583 17.3896C16.6317 17.0933 17.1941 16.6707 17.5875 16.0775C17.9742 15.4944 18.1134 14.8727 18.161 14.325L16.6667 14.1949L15.1723 14.0649C15.1508 14.3118 15.1044 14.3938 15.0874 14.4194C15.0771 14.4349 15.0178 14.5259 14.7499 14.6438C14.1226 14.9198 12.8249 15.1466 10.2058 15.1466V16.6466ZM16.6667 14.1949L18.1667 14.1909C18.165 13.5727 18.0714 13.0539 17.8942 12.5746C17.7276 12.124 17.4999 11.753 17.3401 11.4868L16.0542 12.2591L14.7683 13.0314C14.9492 13.3327 15.0266 13.4696 15.0804 13.6151C15.1236 13.7318 15.1659 13.8972 15.1667 14.199L16.6667 14.1949ZM16.0542 12.2591L17.3396 11.486C17.1269 11.1323 16.9771 10.8762 16.8607 10.5369C16.7473 10.2066 16.6483 9.73996 16.6483 9.01911H15.1483H13.6483C13.6483 10.0308 13.7898 10.8308 14.0231 11.5107C14.2533 12.1816 14.5565 12.6793 14.7687 13.0322L16.0542 12.2591ZM15.1483 9.01911H16.6483C16.6483 6.0689 13.8705 3.18994 10.2058 3.18994V4.68994V6.18994C12.3662 6.18994 13.6483 7.87432 13.6483 9.01911H15.1483ZM10.2058 17.8966V16.3966C8.22843 16.3966 6.61962 16.316 5.48821 15.9261C4.95169 15.7412 4.61579 15.5158 4.40567 15.2759C4.20985 15.0524 4.04226 14.7254 3.99442 14.173L2.50001 14.3024L1.00561 14.4319C1.10151 15.5391 1.48194 16.4912 2.14907 17.2527C2.80189 17.9979 3.64385 18.4636 4.51077 18.7624C6.18623 19.3398 8.28659 19.3966 10.2058 19.3966V17.8966ZM2.50001 14.3024L4.00001 14.2997C3.99905 13.7753 4.07714 13.4294 4.16668 13.1781C4.26129 12.9125 4.38483 12.7002 4.57199 12.3891L3.28668 11.6158L2.00136 10.8425C1.57779 11.5465 0.996778 12.5279 1.00001 14.3052L2.50001 14.3024ZM3.28668 11.6158L4.57277 12.3878C4.75609 12.0824 5.01812 11.6538 5.21095 11.0849C5.40756 10.5047 5.51334 9.84459 5.51334 9.01911H4.01334H2.51334C2.51334 9.57946 2.44288 9.90597 2.3697 10.1219C2.29274 10.349 2.19143 10.5258 2.00059 10.8438L3.28668 11.6158ZM4.01334 9.01911H5.51334C5.51334 7.18888 7.29414 4.93994 10.2058 4.93994V3.43994V1.93994C5.70922 1.93994 2.51334 5.461 2.51334 9.01911H4.01334ZM10.2058 3.43994V4.93994C13.1176 4.93994 14.8983 7.18888 14.8983 9.01911H16.3983H17.8983C17.8983 5.461 14.7025 1.93994 10.2058 1.93994V3.43994ZM16.3983 9.01911H14.8983C14.8983 9.84459 15.0041 10.5047 15.2007 11.0849C15.3936 11.6538 15.6556 12.0824 15.8389 12.3878L17.125 11.6158L18.4111 10.8438C18.2203 10.5258 18.119 10.349 18.042 10.1219C17.9688 9.90597 17.8983 9.57946 17.8983 9.01911H16.3983ZM17.125 11.6158L15.8397 12.3891C16.0276 12.7013 16.1528 12.9163 16.2482 13.1795C16.3379 13.4268 16.4142 13.7579 16.4142 14.2491H17.9142H19.4142C19.4142 12.5189 18.8269 11.5349 18.4103 10.8425L17.125 11.6158ZM17.9142 14.2491L16.4197 14.1202C16.3705 14.6913 16.199 15.0307 15.9998 15.2614C15.7877 15.507 15.4514 15.735 14.9175 15.9215C13.7892 16.3156 12.1842 16.3966 10.2058 16.3966V17.8966V19.3966C12.1242 19.3966 14.2279 19.3401 15.9069 18.7536C16.7766 18.4498 17.6187 17.9767 18.2702 17.2222C18.9348 16.4528 19.3125 15.4931 19.4086 14.378L17.9142 14.2491Z" fill="#989B9D" mask="url(#path-2-inside-1_67_1967)"/>
</g>
<mask id="path-4-inside-2_67_1967" fill="white">
<path fill-rule="evenodd" clip-rule="evenodd" d="M10.1649 21.3565H10.1632C9.22903 21.3556 8.34486 20.944 7.67403 20.1965C7.44319 19.9406 7.46403 19.5448 7.72069 19.3148C7.97736 19.0831 8.37236 19.104 8.60319 19.3615C9.03486 19.8423 9.58903 20.1065 10.164 20.1065H10.1649C10.7424 20.1065 11.299 19.8423 11.7315 19.3606C11.9632 19.1048 12.3582 19.084 12.614 19.3148C12.8707 19.5456 12.8915 19.9415 12.6607 20.1973C11.9874 20.9448 11.1015 21.3565 10.1649 21.3565"/>
</mask>
<path fill-rule="evenodd" clip-rule="evenodd" d="M10.1649 21.3565H10.1632C9.22903 21.3556 8.34486 20.944 7.67403 20.1965C7.44319 19.9406 7.46403 19.5448 7.72069 19.3148C7.97736 19.0831 8.37236 19.104 8.60319 19.3615C9.03486 19.8423 9.58903 20.1065 10.164 20.1065H10.1649C10.7424 20.1065 11.299 19.8423 11.7315 19.3606C11.9632 19.1048 12.3582 19.084 12.614 19.3148C12.8707 19.5456 12.8915 19.9415 12.6607 20.1973C11.9874 20.9448 11.1015 21.3565 10.1649 21.3565" fill="#989B9D"/>
<path d="M10.1632 21.3565L10.1619 22.8565H10.1632V21.3565ZM7.67403 20.1965L8.79039 19.1946L8.7877 19.1916L7.67403 20.1965ZM7.72069 19.3148L8.72174 20.4319L8.72574 20.4283L7.72069 19.3148ZM8.60319 19.3615L7.48628 20.3627L7.487 20.3635L8.60319 19.3615ZM11.7315 19.3606L10.6196 18.3538L10.6154 18.3585L11.7315 19.3606ZM12.614 19.3148L11.6092 20.4285L11.611 20.4301L12.614 19.3148ZM12.6607 20.1973L11.547 19.1924L11.5462 19.1934L12.6607 20.1973ZM10.1649 21.3565V19.8565H10.1632V21.3565V22.8565H10.1649V21.3565ZM10.1632 21.3565L10.1645 19.8565C9.68998 19.856 9.20063 19.6517 8.79039 19.1946L7.67403 20.1965L6.55766 21.1983C7.48909 22.2362 8.76808 22.8552 10.1619 22.8565L10.1632 21.3565ZM7.67403 20.1965L8.7877 19.1916C9.11271 19.5518 9.08403 20.1072 8.72173 20.4319L7.72069 19.3148L6.71965 18.1977C5.84402 18.9823 5.77367 20.3294 6.56035 21.2013L7.67403 20.1965ZM7.72069 19.3148L8.72574 20.4283C8.36609 20.7529 7.80987 20.7237 7.48628 20.3627L8.60319 19.3615L9.72011 18.3602C8.93485 17.4842 7.58863 17.4133 6.71565 18.2013L7.72069 19.3148ZM8.60319 19.3615L7.487 20.3635C8.16467 21.1184 9.10873 21.6065 10.164 21.6065V20.1065V18.6065C10.0693 18.6065 9.90505 18.5662 9.71938 18.3594L8.60319 19.3615ZM10.164 20.1065V21.6065H10.1649V20.1065V18.6065H10.164V20.1065ZM10.1649 20.1065V21.6065C11.2202 21.6065 12.1673 21.1204 12.8476 20.3628L11.7315 19.3606L10.6154 18.3585C10.4307 18.5642 10.2645 18.6065 10.1649 18.6065V20.1065ZM11.7315 19.3606L12.8434 20.3675C12.523 20.7213 11.9712 20.7551 11.6092 20.4285L12.614 19.3148L13.6189 18.2011C12.7452 17.4128 11.4034 17.4882 10.6197 18.3538L11.7315 19.3606ZM12.614 19.3148L11.611 20.4301C11.2523 20.1075 11.2211 19.5537 11.547 19.1924L12.6607 20.1973L13.7744 21.2021C14.562 20.3292 14.4891 18.9837 13.6171 18.1995L12.614 19.3148ZM12.6607 20.1973L11.5462 19.1934C11.1333 19.6517 10.642 19.8565 10.1649 19.8565V21.3565V22.8565C11.5611 22.8565 12.8414 22.2379 13.7752 21.2012L12.6607 20.1973Z" fill="#989B9D" mask="url(#path-4-inside-2_67_1967)"/>
<circle cx="14" cy="4.60645" r="4" fill="#1770FF"/>
</svg>
