<svg width="20" height="22" viewBox="0 0 20 22" fill="none" xmlns="http://www.w3.org/2000/svg">
<mask id="mask0_456_1665" style="mask-type:luminance" maskUnits="userSpaceOnUse" x="2" y="2" width="16" height="16">
<path fill-rule="evenodd" clip-rule="evenodd" d="M2.5 2.8335H17.9141V17.2902H2.5V2.8335Z" fill="white"/>
</mask>
<g mask="url(#mask0_456_1665)">
<mask id="path-2-inside-1_456_1665" fill="white">
<path fill-rule="evenodd" clip-rule="evenodd" d="M10.2058 4.0835C7.29334 4.0835 5.26334 6.36516 5.26334 8.41266C5.26334 10.1452 4.78251 10.946 4.35751 11.6527C4.01668 12.2202 3.74751 12.6685 3.74751 13.6427C3.88668 15.2143 4.92418 16.0402 10.2058 16.0402C15.4583 16.0402 16.5283 15.1777 16.6667 13.5885C16.6642 12.6685 16.395 12.2202 16.0542 11.6527C15.6292 10.946 15.1483 10.1452 15.1483 8.41266C15.1483 6.36516 13.1183 4.0835 10.2058 4.0835ZM10.2058 17.2902C6.30918 17.2902 2.78751 17.0152 2.50001 13.696C2.49751 12.3227 2.91668 11.6243 3.28668 11.0093C3.66084 10.386 4.01334 9.7985 4.01334 8.41266C4.01334 5.7185 6.50168 2.8335 10.2058 2.8335C13.91 2.8335 16.3983 5.7185 16.3983 8.41266C16.3983 9.7985 16.7508 10.386 17.125 11.0093C17.495 11.6243 17.9142 12.3227 17.9142 13.6427C17.6233 17.0152 14.1025 17.2902 10.2058 17.2902Z"/>
</mask>
<path fill-rule="evenodd" clip-rule="evenodd" d="M10.2058 4.0835C7.29334 4.0835 5.26334 6.36516 5.26334 8.41266C5.26334 10.1452 4.78251 10.946 4.35751 11.6527C4.01668 12.2202 3.74751 12.6685 3.74751 13.6427C3.88668 15.2143 4.92418 16.0402 10.2058 16.0402C15.4583 16.0402 16.5283 15.1777 16.6667 13.5885C16.6642 12.6685 16.395 12.2202 16.0542 11.6527C15.6292 10.946 15.1483 10.1452 15.1483 8.41266C15.1483 6.36516 13.1183 4.0835 10.2058 4.0835ZM10.2058 17.2902C6.30918 17.2902 2.78751 17.0152 2.50001 13.696C2.49751 12.3227 2.91668 11.6243 3.28668 11.0093C3.66084 10.386 4.01334 9.7985 4.01334 8.41266C4.01334 5.7185 6.50168 2.8335 10.2058 2.8335C13.91 2.8335 16.3983 5.7185 16.3983 8.41266C16.3983 9.7985 16.7508 10.386 17.125 11.0093C17.495 11.6243 17.9142 12.3227 17.9142 13.6427C17.6233 17.0152 14.1025 17.2902 10.2058 17.2902Z" fill="#989B9D"/>
<path d="M4.35751 11.6527L3.07207 10.8796L3.07161 10.8804L4.35751 11.6527ZM3.74751 13.6427H2.24751V13.7089L2.25336 13.775L3.74751 13.6427ZM16.6667 13.5885L18.161 13.7186L18.1669 13.6516L18.1667 13.5844L16.6667 13.5885ZM16.0542 11.6527L17.3401 10.8804L17.3396 10.8796L16.0542 11.6527ZM2.50001 13.696L1.00001 13.6987L1.00013 13.7622L1.00561 13.8254L2.50001 13.696ZM3.28668 11.0093L4.57199 11.7826L4.57277 11.7813L3.28668 11.0093ZM17.125 11.0093L15.8389 11.7813L15.8397 11.7826L17.125 11.0093ZM17.9142 13.6427L19.4086 13.7715L19.4142 13.7072V13.6427H17.9142ZM10.2058 4.0835V2.5835C6.5412 2.5835 3.76334 5.46246 3.76334 8.41266H5.26334H6.76334C6.76334 7.26787 8.04549 5.5835 10.2058 5.5835V4.0835ZM5.26334 8.41266H3.76334C3.76334 9.13352 3.66437 9.60015 3.55102 9.93048C3.43457 10.2698 3.28482 10.5258 3.07207 10.8796L4.35751 11.6527L5.64295 12.4257C5.8552 12.0728 6.15837 11.5751 6.38859 10.9042C6.6219 10.2243 6.76334 9.42431 6.76334 8.41266H5.26334ZM4.35751 11.6527L3.07161 10.8804C2.91113 11.1476 2.68086 11.5226 2.51362 11.9864C2.33704 12.4761 2.24751 13.0069 2.24751 13.6427H3.74751H5.24751C5.24751 13.3043 5.29256 13.1238 5.33578 13.0039C5.38833 12.8582 5.46306 12.7253 5.64342 12.425L4.35751 11.6527ZM3.74751 13.6427L2.25336 13.775C2.30109 14.314 2.43761 14.9332 2.82531 15.5135C3.22031 16.1048 3.7846 16.5202 4.45568 16.8088C5.7035 17.3454 7.56341 17.5402 10.2058 17.5402V16.0402V14.5402C7.56662 14.5402 6.26694 14.322 5.6408 14.0528C5.3749 13.9384 5.32361 13.8527 5.3199 13.8471C5.30887 13.8306 5.26352 13.7572 5.24167 13.5104L3.74751 13.6427ZM10.2058 16.0402V17.5402C12.8393 17.5402 14.7029 17.3357 15.9583 16.7832C16.6317 16.4868 17.1941 16.0643 17.5875 15.471C17.9742 14.888 18.1134 14.2662 18.161 13.7186L16.6667 13.5885L15.1723 13.4584C15.1508 13.7054 15.1044 13.7873 15.0874 13.813C15.0771 13.8284 15.0178 13.9194 14.7499 14.0373C14.1226 14.3134 12.8249 14.5402 10.2058 14.5402V16.0402ZM16.6667 13.5885L18.1667 13.5844C18.165 12.9662 18.0714 12.4475 17.8942 11.9681C17.7276 11.5175 17.4999 11.1465 17.3401 10.8804L16.0542 11.6527L14.7683 12.425C14.9492 12.7263 15.0266 12.8632 15.0804 13.0087C15.1236 13.1254 15.1659 13.2908 15.1667 13.5926L16.6667 13.5885ZM16.0542 11.6527L17.3396 10.8796C17.1269 10.5258 16.9771 10.2698 16.8607 9.93048C16.7473 9.60015 16.6483 9.13352 16.6483 8.41266H15.1483H13.6483C13.6483 9.42431 13.7898 10.2243 14.0231 10.9042C14.2533 11.5751 14.5565 12.0728 14.7687 12.4257L16.0542 11.6527ZM15.1483 8.41266H16.6483C16.6483 5.46246 13.8705 2.5835 10.2058 2.5835V4.0835V5.5835C12.3662 5.5835 13.6483 7.26787 13.6483 8.41266H15.1483ZM10.2058 17.2902V15.7902C8.22843 15.7902 6.61962 15.7095 5.48821 15.3196C4.95169 15.1347 4.61579 14.9093 4.40567 14.6695C4.20985 14.4459 4.04226 14.119 3.99442 13.5666L2.50001 13.696L1.00561 13.8254C1.10151 14.9326 1.48194 15.8847 2.14907 16.6463C2.80189 17.3915 3.64385 17.8572 4.51077 18.1559C6.18623 18.7333 8.28659 18.7902 10.2058 18.7902V17.2902ZM2.50001 13.696L4.00001 13.6933C3.99905 13.1688 4.07714 12.823 4.16668 12.5716C4.26129 12.306 4.38483 12.0937 4.57199 11.7826L3.28668 11.0093L2.00136 10.2361C1.57779 10.9401 0.996778 11.9215 1.00001 13.6987L2.50001 13.696ZM3.28668 11.0093L4.57277 11.7813C4.75609 11.4759 5.01812 11.0474 5.21095 10.4784C5.40756 9.8983 5.51334 9.23815 5.51334 8.41266H4.01334H2.51334C2.51334 8.97301 2.44288 9.29953 2.3697 9.51546C2.29274 9.74253 2.19143 9.9194 2.00059 10.2373L3.28668 11.0093ZM4.01334 8.41266H5.51334C5.51334 6.58244 7.29414 4.3335 10.2058 4.3335V2.8335V1.3335C5.70922 1.3335 2.51334 4.85455 2.51334 8.41266H4.01334ZM10.2058 2.8335V4.3335C13.1175 4.3335 14.8983 6.58244 14.8983 8.41266H16.3983H17.8983C17.8983 4.85455 14.7025 1.3335 10.2058 1.3335V2.8335ZM16.3983 8.41266H14.8983C14.8983 9.23814 15.0041 9.8983 15.2007 10.4784C15.3936 11.0474 15.6556 11.4759 15.8389 11.7813L17.125 11.0093L18.4111 10.2373C18.2203 9.9194 18.119 9.74253 18.042 9.51546C17.9688 9.29953 17.8983 8.97301 17.8983 8.41266H16.3983ZM17.125 11.0093L15.8397 11.7826C16.0276 12.0949 16.1528 12.3098 16.2482 12.573C16.3379 12.8203 16.4142 13.1514 16.4142 13.6427H17.9142H19.4142C19.4142 11.9125 18.8269 10.9285 18.4103 10.2361L17.125 11.0093ZM17.9142 13.6427L16.4197 13.5138C16.3705 14.0849 16.199 14.4243 15.9998 14.6549C15.7877 14.9005 15.4514 15.1285 14.9175 15.315C13.7892 15.7092 12.1842 15.7902 10.2058 15.7902V17.2902V18.7902C12.1242 18.7902 14.2279 18.7337 15.9069 18.1472C16.7766 17.8434 17.6187 17.3702 18.2702 16.6158C18.9348 15.8464 19.3125 14.8867 19.4086 13.7715L17.9142 13.6427Z" fill="#989B9D" mask="url(#path-2-inside-1_456_1665)"/>
</g>
<mask id="path-4-inside-2_456_1665" fill="white">
<path fill-rule="evenodd" clip-rule="evenodd" d="M10.1649 20.75H10.1632C9.22903 20.7492 8.34486 20.3375 7.67403 19.59C7.44319 19.3342 7.46403 18.9383 7.72069 18.7083C7.97736 18.4767 8.37236 18.4975 8.60319 18.755C9.03486 19.2358 9.58903 19.5 10.164 19.5H10.1649C10.7424 19.5 11.299 19.2358 11.7315 18.7542C11.9632 18.4983 12.3582 18.4775 12.614 18.7083C12.8707 18.9392 12.8915 19.335 12.6607 19.5908C11.9874 20.3383 11.1015 20.75 10.1649 20.75Z"/>
</mask>
<path fill-rule="evenodd" clip-rule="evenodd" d="M10.1649 20.75H10.1632C9.22903 20.7492 8.34486 20.3375 7.67403 19.59C7.44319 19.3342 7.46403 18.9383 7.72069 18.7083C7.97736 18.4767 8.37236 18.4975 8.60319 18.755C9.03486 19.2358 9.58903 19.5 10.164 19.5H10.1649C10.7424 19.5 11.299 19.2358 11.7315 18.7542C11.9632 18.4983 12.3582 18.4775 12.614 18.7083C12.8707 18.9392 12.8915 19.335 12.6607 19.5908C11.9874 20.3383 11.1015 20.75 10.1649 20.75Z" fill="#989B9D"/>
<path d="M10.1632 20.75L10.1619 22.25H10.1632V20.75ZM7.67403 19.59L8.79039 18.5881L8.7877 18.5852L7.67403 19.59ZM7.72069 18.7083L8.72174 19.8255L8.72574 19.8218L7.72069 18.7083ZM8.60319 18.755L7.48628 19.7563L7.487 19.7571L8.60319 18.755ZM11.7315 18.7542L10.6196 17.7473L10.6154 17.752L11.7315 18.7542ZM12.614 18.7083L11.6092 19.822L11.611 19.8236L12.614 18.7083ZM12.6607 19.5908L11.547 18.586L11.5462 18.5869L12.6607 19.5908ZM10.1649 20.75V19.25H10.1632V20.75V22.25H10.1649V20.75ZM10.1632 20.75L10.1645 19.25C9.68998 19.2496 9.20063 19.0453 8.79039 18.5881L7.67403 19.59L6.55766 20.5919C7.48909 21.6297 8.76808 22.2488 10.1619 22.25L10.1632 20.75ZM7.67403 19.59L8.7877 18.5852C9.11271 18.9454 9.08403 19.5008 8.72173 19.8254L7.72069 18.7083L6.71965 17.5912C5.84402 18.3759 5.77367 19.723 6.56035 20.5949L7.67403 19.59ZM7.72069 18.7083L8.72574 19.8218C8.36609 20.1465 7.80987 20.1172 7.48628 19.7563L8.60319 18.755L9.72011 17.7538C8.93485 16.8778 7.58863 16.8069 6.71565 17.5948L7.72069 18.7083ZM8.60319 18.755L7.487 19.7571C8.16467 20.5119 9.10873 21 10.164 21V19.5V18C10.0693 18 9.90505 17.9598 9.71938 17.7529L8.60319 18.755ZM10.164 19.5V21H10.1649V19.5V18H10.164V19.5ZM10.1649 19.5V21C11.2202 21 12.1673 20.514 12.8476 19.7563L11.7315 18.7542L10.6154 17.752C10.4307 17.9577 10.2645 18 10.1649 18V19.5ZM11.7315 18.7542L12.8434 19.761C12.523 20.1149 11.9712 20.1487 11.6092 19.822L12.614 18.7083L13.6189 17.5947C12.7452 16.8063 11.4034 16.8818 10.6197 17.7473L11.7315 18.7542ZM12.614 18.7083L11.611 19.8236C11.2523 19.501 11.2211 18.9472 11.547 18.586L12.6607 19.5908L13.7744 20.5957C14.562 19.7228 14.4891 18.3773 13.6171 17.593L12.614 18.7083ZM12.6607 19.5908L11.5462 18.5869C11.1333 19.0453 10.642 19.25 10.1649 19.25V20.75V22.25C11.5611 22.25 12.8414 21.6314 13.7752 20.5948L12.6607 19.5908Z" fill="#989B9D" mask="url(#path-4-inside-2_456_1665)"/>
<circle cx="14" cy="4" r="4" fill="#1770FF"/>
</svg>
