<svg width="21" height="21" viewBox="0 0 21 21" fill="none" xmlns="http://www.w3.org/2000/svg">
<mask id="mask0_58_1933" style="mask-type:luminance" maskUnits="userSpaceOnUse" x="3" y="1" width="16" height="15">
<path fill-rule="evenodd" clip-rule="evenodd" d="M3 1.43945H18.4141V15.8961H3V1.43945Z" fill="white"/>
</mask>
<g mask="url(#mask0_58_1933)">
<mask id="path-2-inside-1_58_1933" fill="white">
<path fill-rule="evenodd" clip-rule="evenodd" d="M10.7058 2.68945C7.79334 2.68945 5.76334 4.97112 5.76334 7.01862C5.76334 8.75112 5.28251 9.55195 4.85751 10.2586C4.51668 10.8261 4.24751 11.2745 4.24751 12.2486C4.38668 13.8203 5.42418 14.6461 10.7058 14.6461C15.9583 14.6461 17.0283 13.7836 17.1667 12.1945C17.1642 11.2745 16.895 10.8261 16.5542 10.2586C16.1292 9.55195 15.6483 8.75112 15.6483 7.01862C15.6483 4.97112 13.6183 2.68945 10.7058 2.68945M10.7058 15.8961C6.80918 15.8961 3.28751 15.6211 3.00001 12.302C2.99751 10.9286 3.41668 10.2303 3.78668 9.61529C4.16084 8.99195 4.51334 8.40445 4.51334 7.01862C4.51334 4.32445 7.00168 1.43945 10.7058 1.43945C14.41 1.43945 16.8983 4.32445 16.8983 7.01862C16.8983 8.40445 17.2508 8.99195 17.625 9.61529C17.995 10.2303 18.4142 10.9286 18.4142 12.2486C18.1233 15.6211 14.6025 15.8961 10.7058 15.8961"/>
</mask>
<path fill-rule="evenodd" clip-rule="evenodd" d="M10.7058 2.68945C7.79334 2.68945 5.76334 4.97112 5.76334 7.01862C5.76334 8.75112 5.28251 9.55195 4.85751 10.2586C4.51668 10.8261 4.24751 11.2745 4.24751 12.2486C4.38668 13.8203 5.42418 14.6461 10.7058 14.6461C15.9583 14.6461 17.0283 13.7836 17.1667 12.1945C17.1642 11.2745 16.895 10.8261 16.5542 10.2586C16.1292 9.55195 15.6483 8.75112 15.6483 7.01862C15.6483 4.97112 13.6183 2.68945 10.7058 2.68945M10.7058 15.8961C6.80918 15.8961 3.28751 15.6211 3.00001 12.302C2.99751 10.9286 3.41668 10.2303 3.78668 9.61529C4.16084 8.99195 4.51334 8.40445 4.51334 7.01862C4.51334 4.32445 7.00168 1.43945 10.7058 1.43945C14.41 1.43945 16.8983 4.32445 16.8983 7.01862C16.8983 8.40445 17.2508 8.99195 17.625 9.61529C17.995 10.2303 18.4142 10.9286 18.4142 12.2486C18.1233 15.6211 14.6025 15.8961 10.7058 15.8961" fill="#989B9D"/>
<path d="M4.85751 10.2586L3.57207 9.48554L3.57161 9.48632L4.85751 10.2586ZM4.24751 12.2486H2.74751V12.3149L2.75336 12.3809L4.24751 12.2486ZM17.1667 12.1945L18.661 12.3245L18.6669 12.2576L18.6667 12.1904L17.1667 12.1945ZM16.5542 10.2586L17.8401 9.48632L17.8396 9.48554L16.5542 10.2586ZM3.00001 12.302L1.50001 12.3047L1.50013 12.3682L1.50561 12.4314L3.00001 12.302ZM3.78668 9.61529L5.07199 10.3886L5.07277 10.3873L3.78668 9.61529ZM17.625 9.61529L16.3389 10.3873L16.3397 10.3886L17.625 9.61529ZM18.4142 12.2486L19.9086 12.3775L19.9142 12.3132V12.2486H18.4142ZM10.7058 2.68945V1.18945C7.0412 1.18945 4.26334 4.06841 4.26334 7.01862H5.76334H7.26334C7.26334 5.87383 8.54549 4.18945 10.7058 4.18945V2.68945ZM5.76334 7.01862H4.26334C4.26334 7.73947 4.16437 8.20611 4.05102 8.53643C3.93457 8.87576 3.78482 9.1318 3.57207 9.48554L4.85751 10.2586L6.14295 11.0317C6.3552 10.6788 6.65837 10.1811 6.88859 9.51018C7.1219 8.8303 7.26334 8.03027 7.26334 7.01862H5.76334ZM4.85751 10.2586L3.57161 9.48632C3.41113 9.75352 3.18086 10.1285 3.01362 10.5923C2.83704 11.0821 2.74751 11.6128 2.74751 12.2486H4.24751H5.74751C5.74751 11.9103 5.79256 11.7298 5.83578 11.6099C5.88833 11.4641 5.96306 11.3312 6.14342 11.0309L4.85751 10.2586ZM4.24751 12.2486L2.75336 12.3809C2.80109 12.9199 2.93761 13.5391 3.32531 14.1195C3.72031 14.7108 4.2846 15.1262 4.95568 15.4147C6.2035 15.9513 8.06341 16.1461 10.7058 16.1461V14.6461V13.1461C8.06662 13.1461 6.76694 12.928 6.1408 12.6587C5.8749 12.5444 5.82361 12.4586 5.8199 12.4531C5.80887 12.4365 5.76352 12.3631 5.74167 12.1163L4.24751 12.2486ZM10.7058 14.6461V16.1461C13.3393 16.1461 15.2029 15.9416 16.4583 15.3892C17.1317 15.0928 17.6941 14.6702 18.0875 14.077C18.4742 13.494 18.6134 12.8722 18.661 12.3245L17.1667 12.1945L15.6723 12.0644C15.6508 12.3113 15.6044 12.3933 15.5874 12.4189C15.5771 12.4344 15.5178 12.5254 15.2499 12.6433C14.6226 12.9193 13.3249 13.1461 10.7058 13.1461V14.6461ZM17.1667 12.1945L18.6667 12.1904C18.665 11.5722 18.5714 11.0534 18.3942 10.5741C18.2276 10.1235 17.9999 9.75249 17.8401 9.48632L16.5542 10.2586L15.2683 11.0309C15.4492 11.3323 15.5266 11.4692 15.5804 11.6146C15.6236 11.7313 15.6659 11.8967 15.6667 12.1985L17.1667 12.1945ZM16.5542 10.2586L17.8396 9.48554C17.6269 9.1318 17.4771 8.87576 17.3607 8.53643C17.2473 8.20611 17.1483 7.73947 17.1483 7.01862H15.6483H14.1483C14.1483 8.03027 14.2898 8.8303 14.5231 9.51018C14.7533 10.1811 15.0565 10.6788 15.2687 11.0317L16.5542 10.2586ZM15.6483 7.01862H17.1483C17.1483 4.06841 14.3705 1.18945 10.7058 1.18945V2.68945V4.18945C12.8662 4.18945 14.1483 5.87383 14.1483 7.01862H15.6483ZM10.7058 15.8961V14.3961C8.72843 14.3961 7.11962 14.3155 5.98821 13.9256C5.45169 13.7407 5.11579 13.5153 4.90567 13.2754C4.70985 13.0519 4.54226 12.7249 4.49442 12.1725L3.00001 12.302L1.50561 12.4314C1.60151 13.5386 1.98194 14.4907 2.64907 15.2522C3.30189 15.9974 4.14385 16.4631 5.01077 16.7619C6.68623 17.3393 8.78659 17.3961 10.7058 17.3961V15.8961ZM3.00001 12.302L4.50001 12.2992C4.49905 11.7748 4.57714 11.4289 4.66668 11.1776C4.76129 10.912 4.88483 10.6997 5.07199 10.3886L3.78668 9.61529L2.50136 8.84201C2.07779 9.54605 1.49678 10.5274 1.50001 12.3047L3.00001 12.302ZM3.78668 9.61529L5.07277 10.3873C5.25609 10.0819 5.51812 9.65333 5.71095 9.08437C5.90756 8.50425 6.01334 7.8441 6.01334 7.01862H4.51334H3.01334C3.01334 7.57897 2.94288 7.90549 2.8697 8.12142C2.79274 8.34849 2.69143 8.52536 2.50059 8.84329L3.78668 9.61529ZM4.51334 7.01862H6.01334C6.01334 5.1884 7.79414 2.93945 10.7058 2.93945V1.43945V-0.0605469C6.20922 -0.0605469 3.01334 3.46051 3.01334 7.01862H4.51334ZM10.7058 1.43945V2.93945C13.6176 2.93945 15.3983 5.1884 15.3983 7.01862H16.8983H18.3983C18.3983 3.46051 15.2025 -0.0605469 10.7058 -0.0605469V1.43945ZM16.8983 7.01862H15.3983C15.3983 7.8441 15.5041 8.50425 15.7007 9.08436C15.8936 9.65333 16.1556 10.0819 16.3389 10.3873L17.625 9.61529L18.9111 8.84329C18.7203 8.52536 18.619 8.34849 18.542 8.12142C18.4688 7.90549 18.3983 7.57897 18.3983 7.01862H16.8983ZM17.625 9.61529L16.3397 10.3886C16.5276 10.7009 16.6528 10.9158 16.7482 11.179C16.8379 11.4263 16.9142 11.7574 16.9142 12.2486H18.4142H19.9142C19.9142 10.5185 19.3269 9.53441 18.9103 8.84201L17.625 9.61529ZM18.4142 12.2486L16.9197 12.1197C16.8705 12.6908 16.699 13.0302 16.4998 13.2609C16.2877 13.5065 15.9514 13.7345 15.4175 13.921C14.2892 14.3151 12.6842 14.3961 10.7058 14.3961V15.8961V17.3961C12.6242 17.3961 14.7279 17.3396 16.4069 16.7531C17.2766 16.4493 18.1187 15.9762 18.7702 15.2218C19.4348 14.4523 19.8125 13.4927 19.9086 12.3775L18.4142 12.2486Z" fill="white" mask="url(#path-2-inside-1_58_1933)"/>
</g>
<mask id="path-4-inside-2_58_1933" fill="white">
<path fill-rule="evenodd" clip-rule="evenodd" d="M10.6649 19.356H10.6632C9.72903 19.3551 8.84486 18.9435 8.17403 18.196C7.94319 17.9401 7.96403 17.5443 8.22069 17.3143C8.47736 17.0826 8.87236 17.1035 9.10319 17.361C9.53486 17.8418 10.089 18.106 10.664 18.106H10.6649C11.2424 18.106 11.799 17.8418 12.2315 17.3601C12.4632 17.1043 12.8582 17.0835 13.114 17.3143C13.3707 17.5451 13.3915 17.941 13.1607 18.1968C12.4874 18.9443 11.6015 19.356 10.6649 19.356"/>
</mask>
<path fill-rule="evenodd" clip-rule="evenodd" d="M10.6649 19.356H10.6632C9.72903 19.3551 8.84486 18.9435 8.17403 18.196C7.94319 17.9401 7.96403 17.5443 8.22069 17.3143C8.47736 17.0826 8.87236 17.1035 9.10319 17.361C9.53486 17.8418 10.089 18.106 10.664 18.106H10.6649C11.2424 18.106 11.799 17.8418 12.2315 17.3601C12.4632 17.1043 12.8582 17.0835 13.114 17.3143C13.3707 17.5451 13.3915 17.941 13.1607 18.1968C12.4874 18.9443 11.6015 19.356 10.6649 19.356" fill="#989B9D"/>
<path d="M10.6632 19.356L10.6619 20.856H10.6632V19.356ZM8.17403 18.196L9.29039 17.1941L9.2877 17.1911L8.17403 18.196ZM8.22069 17.3143L9.22174 18.4314L9.22574 18.4278L8.22069 17.3143ZM9.10319 17.361L7.98628 18.3622L7.987 18.363L9.10319 17.361ZM12.2315 17.3601L11.1196 16.3533L11.1154 16.358L12.2315 17.3601ZM13.114 17.3143L12.1092 18.428L12.111 18.4296L13.114 17.3143ZM13.1607 18.1968L12.047 17.1919L12.0462 17.1929L13.1607 18.1968ZM10.6649 19.356V17.856H10.6632V19.356V20.856H10.6649V19.356ZM10.6632 19.356L10.6645 17.856C10.19 17.8555 9.70063 17.6512 9.29039 17.1941L8.17403 18.196L7.05766 19.1978C7.98909 20.2357 9.26808 20.8547 10.6619 20.856L10.6632 19.356ZM8.17403 18.196L9.2877 17.1911C9.61271 17.5513 9.58403 18.1067 9.22173 18.4314L8.22069 17.3143L7.21965 16.1972C6.34402 16.9818 6.27367 18.3289 7.06035 19.2008L8.17403 18.196ZM8.22069 17.3143L9.22574 18.4278C8.86609 18.7524 8.30987 18.7232 7.98628 18.3622L9.10319 17.361L10.2201 16.3597C9.43485 15.4837 8.08863 15.4128 7.21565 16.2008L8.22069 17.3143ZM9.10319 17.361L7.987 18.363C8.66467 19.1179 9.60873 19.606 10.664 19.606V18.106V16.606C10.5693 16.606 10.405 16.5657 10.2194 16.3589L9.10319 17.361ZM10.664 18.106V19.606H10.6649V18.106V16.606H10.664V18.106ZM10.6649 18.106V19.606C11.7202 19.606 12.6673 19.1199 13.3476 18.3623L12.2315 17.3601L11.1154 16.358C10.9307 16.5637 10.7645 16.606 10.6649 16.606V18.106ZM12.2315 17.3601L13.3434 18.367C13.023 18.7209 12.4712 18.7546 12.1092 18.428L13.114 17.3143L14.1189 16.2006C13.2452 15.4123 11.9034 15.4877 11.1197 16.3533L12.2315 17.3601ZM13.114 17.3143L12.111 18.4296C11.7523 18.107 11.7211 17.5532 12.047 17.1919L13.1607 18.1968L14.2744 19.2016C15.062 18.3287 14.9891 16.9833 14.1171 16.199L13.114 17.3143ZM13.1607 18.1968L12.0462 17.1929C11.6333 17.6512 11.142 17.856 10.6649 17.856V19.356V20.856C12.0611 20.856 13.3414 20.2374 14.2752 19.2007L13.1607 18.1968Z" fill="white" mask="url(#path-4-inside-2_58_1933)"/>
</svg>
