<svg width="20" height="21" viewBox="0 0 20 21" fill="none" xmlns="http://www.w3.org/2000/svg">
<mask id="mask0_44_1437" style="mask-type:luminance" maskUnits="userSpaceOnUse" x="2" y="1" width="16" height="15">
<path fill-rule="evenodd" clip-rule="evenodd" d="M2.5 1.43994H17.9141V15.8966H2.5V1.43994Z" fill="white"/>
</mask>
<g mask="url(#mask0_44_1437)">
<mask id="path-2-inside-1_44_1437" fill="white">
<path fill-rule="evenodd" clip-rule="evenodd" d="M10.2058 2.68994C7.29334 2.68994 5.26334 4.97161 5.26334 7.01911C5.26334 8.75161 4.78251 9.55244 4.35751 10.2591C4.01668 10.8266 3.74751 11.2749 3.74751 12.2491C3.88668 13.8208 4.92418 14.6466 10.2058 14.6466C15.4583 14.6466 16.5283 13.7841 16.6667 12.1949C16.6642 11.2749 16.395 10.8266 16.0542 10.2591C15.6292 9.55244 15.1483 8.75161 15.1483 7.01911C15.1483 4.97161 13.1183 2.68994 10.2058 2.68994M10.2058 15.8966C6.30918 15.8966 2.78751 15.6216 2.50001 12.3024C2.49751 10.9291 2.91668 10.2308 3.28668 9.61578C3.66084 8.99244 4.01334 8.40494 4.01334 7.01911C4.01334 4.32494 6.50168 1.43994 10.2058 1.43994C13.91 1.43994 16.3983 4.32494 16.3983 7.01911C16.3983 8.40494 16.7508 8.99244 17.125 9.61578C17.495 10.2308 17.9142 10.9291 17.9142 12.2491C17.6233 15.6216 14.1025 15.8966 10.2058 15.8966"/>
</mask>
<path fill-rule="evenodd" clip-rule="evenodd" d="M10.2058 2.68994C7.29334 2.68994 5.26334 4.97161 5.26334 7.01911C5.26334 8.75161 4.78251 9.55244 4.35751 10.2591C4.01668 10.8266 3.74751 11.2749 3.74751 12.2491C3.88668 13.8208 4.92418 14.6466 10.2058 14.6466C15.4583 14.6466 16.5283 13.7841 16.6667 12.1949C16.6642 11.2749 16.395 10.8266 16.0542 10.2591C15.6292 9.55244 15.1483 8.75161 15.1483 7.01911C15.1483 4.97161 13.1183 2.68994 10.2058 2.68994M10.2058 15.8966C6.30918 15.8966 2.78751 15.6216 2.50001 12.3024C2.49751 10.9291 2.91668 10.2308 3.28668 9.61578C3.66084 8.99244 4.01334 8.40494 4.01334 7.01911C4.01334 4.32494 6.50168 1.43994 10.2058 1.43994C13.91 1.43994 16.3983 4.32494 16.3983 7.01911C16.3983 8.40494 16.7508 8.99244 17.125 9.61578C17.495 10.2308 17.9142 10.9291 17.9142 12.2491C17.6233 15.6216 14.1025 15.8966 10.2058 15.8966" fill="#989B9D"/>
<path d="M4.35751 10.2591L3.07207 9.48603L3.07161 9.48681L4.35751 10.2591ZM3.74751 12.2491H2.24751V12.3154L2.25336 12.3814L3.74751 12.2491ZM16.6667 12.1949L18.161 12.325L18.1669 12.2581L18.1667 12.1909L16.6667 12.1949ZM16.0542 10.2591L17.3401 9.48681L17.3396 9.48603L16.0542 10.2591ZM2.50001 12.3024L1.00001 12.3052L1.00013 12.3686L1.00561 12.4319L2.50001 12.3024ZM3.28668 9.61578L4.57199 10.3891L4.57277 10.3878L3.28668 9.61578ZM17.125 9.61578L15.8389 10.3878L15.8397 10.3891L17.125 9.61578ZM17.9142 12.2491L19.4086 12.378L19.4142 12.3137V12.2491H17.9142ZM10.2058 2.68994V1.18994C6.5412 1.18994 3.76334 4.0689 3.76334 7.01911H5.26334H6.76334C6.76334 5.87432 8.04549 4.18994 10.2058 4.18994V2.68994ZM5.26334 7.01911H3.76334C3.76334 7.73996 3.66437 8.20659 3.55102 8.53692C3.43457 8.87625 3.28482 9.13229 3.07207 9.48603L4.35751 10.2591L5.64295 11.0322C5.8552 10.6793 6.15837 10.1816 6.38859 9.51067C6.6219 8.83079 6.76334 8.03076 6.76334 7.01911H5.26334ZM4.35751 10.2591L3.07161 9.48681C2.91113 9.75401 2.68086 10.129 2.51362 10.5928C2.33704 11.0826 2.24751 11.6133 2.24751 12.2491H3.74751H5.24751C5.24751 11.9107 5.29256 11.7302 5.33578 11.6104C5.38833 11.4646 5.46306 11.3317 5.64342 11.0314L4.35751 10.2591ZM3.74751 12.2491L2.25336 12.3814C2.30109 12.9204 2.43761 13.5396 2.82531 14.12C3.22031 14.7113 3.7846 15.1267 4.45568 15.4152C5.7035 15.9518 7.56341 16.1466 10.2058 16.1466V14.6466V13.1466C7.56662 13.1466 6.26694 12.9285 5.6408 12.6592C5.3749 12.5449 5.32361 12.4591 5.3199 12.4535C5.30887 12.437 5.26352 12.3636 5.24167 12.1168L3.74751 12.2491ZM10.2058 14.6466V16.1466C12.8393 16.1466 14.7029 15.9421 15.9583 15.3896C16.6317 15.0933 17.1941 14.6707 17.5875 14.0775C17.9742 13.4944 18.1134 12.8727 18.161 12.325L16.6667 12.1949L15.1723 12.0649C15.1508 12.3118 15.1044 12.3938 15.0874 12.4194C15.0771 12.4349 15.0178 12.5259 14.7499 12.6438C14.1226 12.9198 12.8249 13.1466 10.2058 13.1466V14.6466ZM16.6667 12.1949L18.1667 12.1909C18.165 11.5727 18.0714 11.0539 17.8942 10.5746C17.7276 10.124 17.4999 9.75297 17.3401 9.48681L16.0542 10.2591L14.7683 11.0314C14.9492 11.3327 15.0266 11.4696 15.0804 11.6151C15.1236 11.7318 15.1659 11.8972 15.1667 12.199L16.6667 12.1949ZM16.0542 10.2591L17.3396 9.48603C17.1269 9.13229 16.9771 8.87625 16.8607 8.53692C16.7473 8.20659 16.6483 7.73996 16.6483 7.01911H15.1483H13.6483C13.6483 8.03076 13.7898 8.83079 14.0231 9.51067C14.2533 10.1816 14.5565 10.6793 14.7687 11.0322L16.0542 10.2591ZM15.1483 7.01911H16.6483C16.6483 4.0689 13.8705 1.18994 10.2058 1.18994V2.68994V4.18994C12.3662 4.18994 13.6483 5.87432 13.6483 7.01911H15.1483ZM10.2058 15.8966V14.3966C8.22843 14.3966 6.61962 14.316 5.48821 13.9261C4.95169 13.7412 4.61579 13.5158 4.40567 13.2759C4.20985 13.0524 4.04226 12.7254 3.99442 12.173L2.50001 12.3024L1.00561 12.4319C1.10151 13.5391 1.48194 14.4912 2.14907 15.2527C2.80189 15.9979 3.64385 16.4636 4.51077 16.7624C6.18623 17.3398 8.28659 17.3966 10.2058 17.3966V15.8966ZM2.50001 12.3024L4.00001 12.2997C3.99905 11.7753 4.07714 11.4294 4.16668 11.1781C4.26129 10.9125 4.38483 10.7002 4.57199 10.3891L3.28668 9.61578L2.00136 8.8425C1.57779 9.54654 0.996778 10.5279 1.00001 12.3052L2.50001 12.3024ZM3.28668 9.61578L4.57277 10.3878C4.75609 10.0824 5.01812 9.65382 5.21095 9.08485C5.40756 8.50474 5.51334 7.84459 5.51334 7.01911H4.01334H2.51334C2.51334 7.57946 2.44288 7.90597 2.3697 8.12191C2.29274 8.34898 2.19143 8.52585 2.00059 8.84378L3.28668 9.61578ZM4.01334 7.01911H5.51334C5.51334 5.18888 7.29414 2.93994 10.2058 2.93994V1.43994V-0.0600586C5.70922 -0.0600586 2.51334 3.461 2.51334 7.01911H4.01334ZM10.2058 1.43994V2.93994C13.1176 2.93994 14.8983 5.18888 14.8983 7.01911H16.3983H17.8983C17.8983 3.461 14.7025 -0.0600586 10.2058 -0.0600586V1.43994ZM16.3983 7.01911H14.8983C14.8983 7.84459 15.0041 8.50474 15.2007 9.08485C15.3936 9.65382 15.6556 10.0824 15.8389 10.3878L17.125 9.61578L18.4111 8.84378C18.2203 8.52585 18.119 8.34898 18.042 8.12191C17.9688 7.90597 17.8983 7.57946 17.8983 7.01911H16.3983ZM17.125 9.61578L15.8397 10.3891C16.0276 10.7013 16.1528 10.9163 16.2482 11.1795C16.3379 11.4268 16.4142 11.7579 16.4142 12.2491H17.9142H19.4142C19.4142 10.5189 18.8269 9.5349 18.4103 8.8425L17.125 9.61578ZM17.9142 12.2491L16.4197 12.1202C16.3705 12.6913 16.199 13.0307 15.9998 13.2614C15.7877 13.507 15.4514 13.735 14.9175 13.9215C13.7892 14.3156 12.1842 14.3966 10.2058 14.3966V15.8966V17.3966C12.1242 17.3966 14.2279 17.3401 15.9069 16.7536C16.7766 16.4498 17.6187 15.9767 18.2702 15.2222C18.9348 14.4528 19.3125 13.4931 19.4086 12.378L17.9142 12.2491Z" fill="#989B9D" mask="url(#path-2-inside-1_44_1437)"/>
</g>
<mask id="path-4-inside-2_44_1437" fill="white">
<path fill-rule="evenodd" clip-rule="evenodd" d="M10.1649 19.3565H10.1632C9.22903 19.3556 8.34486 18.944 7.67403 18.1965C7.44319 17.9406 7.46403 17.5448 7.72069 17.3148C7.97736 17.0831 8.37236 17.104 8.60319 17.3615C9.03486 17.8423 9.58903 18.1065 10.164 18.1065H10.1649C10.7424 18.1065 11.299 17.8423 11.7315 17.3606C11.9632 17.1048 12.3582 17.084 12.614 17.3148C12.8707 17.5456 12.8915 17.9415 12.6607 18.1973C11.9874 18.9448 11.1015 19.3565 10.1649 19.3565"/>
</mask>
<path fill-rule="evenodd" clip-rule="evenodd" d="M10.1649 19.3565H10.1632C9.22903 19.3556 8.34486 18.944 7.67403 18.1965C7.44319 17.9406 7.46403 17.5448 7.72069 17.3148C7.97736 17.0831 8.37236 17.104 8.60319 17.3615C9.03486 17.8423 9.58903 18.1065 10.164 18.1065H10.1649C10.7424 18.1065 11.299 17.8423 11.7315 17.3606C11.9632 17.1048 12.3582 17.084 12.614 17.3148C12.8707 17.5456 12.8915 17.9415 12.6607 18.1973C11.9874 18.9448 11.1015 19.3565 10.1649 19.3565" fill="#989B9D"/>
<path d="M10.1632 19.3565L10.1619 20.8565H10.1632V19.3565ZM7.67403 18.1965L8.79039 17.1946L8.7877 17.1916L7.67403 18.1965ZM7.72069 17.3148L8.72174 18.4319L8.72574 18.4283L7.72069 17.3148ZM8.60319 17.3615L7.48628 18.3627L7.487 18.3635L8.60319 17.3615ZM11.7315 17.3606L10.6196 16.3538L10.6154 16.3585L11.7315 17.3606ZM12.614 17.3148L11.6092 18.4285L11.611 18.4301L12.614 17.3148ZM12.6607 18.1973L11.547 17.1924L11.5462 17.1934L12.6607 18.1973ZM10.1649 19.3565V17.8565H10.1632V19.3565V20.8565H10.1649V19.3565ZM10.1632 19.3565L10.1645 17.8565C9.68998 17.856 9.20063 17.6517 8.79039 17.1946L7.67403 18.1965L6.55766 19.1983C7.48909 20.2362 8.76808 20.8552 10.1619 20.8565L10.1632 19.3565ZM7.67403 18.1965L8.7877 17.1916C9.11271 17.5518 9.08403 18.1072 8.72173 18.4319L7.72069 17.3148L6.71965 16.1977C5.84402 16.9823 5.77367 18.3294 6.56035 19.2013L7.67403 18.1965ZM7.72069 17.3148L8.72574 18.4283C8.36609 18.7529 7.80987 18.7237 7.48628 18.3627L8.60319 17.3615L9.72011 16.3602C8.93485 15.4842 7.58863 15.4133 6.71565 16.2013L7.72069 17.3148ZM8.60319 17.3615L7.487 18.3635C8.16467 19.1184 9.10873 19.6065 10.164 19.6065V18.1065V16.6065C10.0693 16.6065 9.90505 16.5662 9.71938 16.3594L8.60319 17.3615ZM10.164 18.1065V19.6065H10.1649V18.1065V16.6065H10.164V18.1065ZM10.1649 18.1065V19.6065C11.2202 19.6065 12.1673 19.1204 12.8476 18.3628L11.7315 17.3606L10.6154 16.3585C10.4307 16.5642 10.2645 16.6065 10.1649 16.6065V18.1065ZM11.7315 17.3606L12.8434 18.3675C12.523 18.7213 11.9712 18.7551 11.6092 18.4285L12.614 17.3148L13.6189 16.2011C12.7452 15.4128 11.4034 15.4882 10.6197 16.3538L11.7315 17.3606ZM12.614 17.3148L11.611 18.4301C11.2523 18.1075 11.2211 17.5537 11.547 17.1924L12.6607 18.1973L13.7744 19.2021C14.562 18.3292 14.4891 16.9837 13.6171 16.1995L12.614 17.3148ZM12.6607 18.1973L11.5462 17.1934C11.1333 17.6517 10.642 17.8565 10.1649 17.8565V19.3565V20.8565C11.5611 20.8565 12.8414 20.2379 13.7752 19.2012L12.6607 18.1973Z" fill="#989B9D" mask="url(#path-4-inside-2_44_1437)"/>
</svg>
