<svg width="15" height="14" viewBox="0 0 15 14" fill="none" xmlns="http://www.w3.org/2000/svg">
<rect width="14.8721" height="14" rx="2" fill="#C8C8C8"/>
<rect width="10.3068" height="10.3068" transform="translate(2.28284 1.84668)" fill="#C8C8C8"/>
<path d="M10.7473 3.0651C11.0621 3.12823 11.3081 3.37431 11.3713 3.68909C11.4162 3.91464 11.4097 4.14744 11.3523 4.37013C11.2948 4.59282 11.1878 4.79968 11.0393 4.97529L9.85788 6.37186L10.6927 9.43426C10.7177 9.52557 10.718 9.62185 10.6937 9.71333C10.6694 9.80481 10.6214 9.88825 10.5545 9.95518L9.99531 10.5143C9.94783 10.5618 9.88998 10.5976 9.82631 10.6189C9.76265 10.6402 9.69491 10.6464 9.62843 10.6371C9.56195 10.6278 9.49853 10.6031 9.44319 10.5651C9.38784 10.5271 9.34207 10.4768 9.30948 10.4181L8.02414 8.10468L6.62499 9.07309V9.41107C6.62499 9.55321 6.56831 9.69021 6.46782 9.7907L5.74505 10.513C5.69277 10.5654 5.62797 10.6035 5.55681 10.6237C5.48565 10.644 5.4105 10.6457 5.3385 10.6287C5.26649 10.6117 5.20004 10.5765 5.14544 10.5266C5.09085 10.4767 5.04993 10.4136 5.02659 10.3434L4.79297 9.64297L4.09254 9.40935C4.02233 9.386 3.95927 9.34509 3.90934 9.29049C3.85942 9.2359 3.82428 9.16944 3.80728 9.09744C3.79028 9.02544 3.79198 8.95028 3.81222 8.87912C3.83246 8.80796 3.87056 8.74316 3.9229 8.69088L4.64567 7.96812C4.69552 7.91827 4.75471 7.87874 4.81985 7.85177C4.88499 7.8248 4.9548 7.81093 5.0253 7.81094H5.36327L6.33168 6.4118L4.01824 5.12646C3.95955 5.09386 3.90923 5.04809 3.87123 4.99275C3.83323 4.9374 3.8086 4.87399 3.79928 4.80751C3.78995 4.74103 3.79619 4.67329 3.81749 4.60962C3.83879 4.54596 3.87458 4.48811 3.92204 4.44063L4.48119 3.88148C4.54812 3.81456 4.63155 3.76652 4.72304 3.74223C4.81452 3.71795 4.9108 3.71828 5.00211 3.7432L8.06408 4.57805L9.46107 3.39664C9.63669 3.24812 9.84354 3.14114 10.0662 3.08367C10.2889 3.02619 10.5217 3.02013 10.7473 3.0651Z" fill="white"/>
</svg>
