<svg width="15" height="14" viewBox="0 0 15 14" fill="none" xmlns="http://www.w3.org/2000/svg">
<rect x="0.112366" width="14.8721" height="14" rx="2" fill="#00E62A"/>
<rect width="10.3068" height="10.3068" transform="translate(2.3952 1.84668)" fill="#00E62A"/>
<path d="M10.8596 3.0651C11.1744 3.12823 11.4205 3.37431 11.4836 3.68909C11.5286 3.91464 11.5221 4.14744 11.4646 4.37013C11.4072 4.59282 11.3002 4.79968 11.1517 4.97529L9.97025 6.37186L10.8051 9.43426C10.83 9.52557 10.8304 9.62185 10.8061 9.71333C10.7818 9.80481 10.7337 9.88825 10.6668 9.95518L10.1077 10.5143C10.0602 10.5618 10.0023 10.5976 9.93868 10.6189C9.87502 10.6402 9.80728 10.6464 9.74079 10.6371C9.67431 10.6278 9.6109 10.6031 9.55555 10.5651C9.50021 10.5271 9.45444 10.4768 9.42184 10.4181L8.1365 8.10468L6.73736 9.07309V9.41107C6.73736 9.55321 6.68067 9.69021 6.58018 9.7907L5.85742 10.513C5.80514 10.5654 5.74034 10.6035 5.66918 10.6237C5.59802 10.644 5.52286 10.6457 5.45086 10.6287C5.37886 10.6117 5.3124 10.5765 5.25781 10.5266C5.20322 10.4767 5.1623 10.4136 5.13895 10.3434L4.90533 9.64297L4.2049 9.40935C4.1347 9.386 4.07164 9.34509 4.02171 9.29049C3.97178 9.2359 3.93665 9.16944 3.91965 9.09744C3.90265 9.02544 3.90435 8.95028 3.92458 8.87912C3.94482 8.80796 3.98292 8.74316 4.03527 8.69088L4.75803 7.96812C4.80789 7.91827 4.86708 7.87874 4.93221 7.85177C4.99735 7.8248 5.06716 7.81093 5.13766 7.81094H5.47564L6.44405 6.4118L4.13061 5.12646C4.07192 5.09386 4.02159 5.04809 3.9836 4.99275C3.9456 4.9374 3.92097 4.87399 3.91164 4.80751C3.90232 4.74103 3.90855 4.67329 3.92986 4.60962C3.95116 4.54596 3.98695 4.48811 4.03441 4.44063L4.59355 3.88148C4.66048 3.81456 4.74392 3.76652 4.8354 3.74223C4.92688 3.71795 5.02316 3.71828 5.11447 3.7432L8.17644 4.57805L9.57344 3.39664C9.74905 3.24812 9.95591 3.14114 10.1786 3.08367C10.4013 3.02619 10.6341 3.02013 10.8596 3.0651Z" fill="white"/>
</svg>
