<svg width="41" height="41" viewBox="0 0 41 41" fill="none" xmlns="http://www.w3.org/2000/svg">
<mask id="mask0_44_282" style="mask-type:luminance" maskUnits="userSpaceOnUse" x="3" y="3" width="35" height="35">
<path fill-rule="evenodd" clip-rule="evenodd" d="M3.41699 3.4165H37.5835V37.5832H3.41699V3.4165Z" fill="white"/>
</mask>
<g mask="url(#mask0_44_282)">
<path fill-rule="evenodd" clip-rule="evenodd" d="M13.093 5.979C8.77262 5.979 5.97949 8.93954 5.97949 13.523V27.4767C5.97949 32.0601 8.77262 35.0207 13.093 35.0207H27.9008C32.2263 35.0207 35.0212 32.0601 35.0212 27.4767V13.523C35.0212 8.93954 32.2263 5.979 27.9042 5.979H13.093ZM27.9008 37.5832H13.093C7.30516 37.5832 3.41699 33.5208 3.41699 27.4767V13.523C3.41699 7.47892 7.30516 3.4165 13.093 3.4165H27.9042C33.6938 3.4165 37.5837 7.47892 37.5837 13.523V27.4767C37.5837 33.5208 33.6938 37.5832 27.9008 37.5832V37.5832Z" fill="#00D438"/>
</g>
<path fill-rule="evenodd" clip-rule="evenodd" d="M15.0999 18.6182C14.0578 18.6182 13.2139 19.4621 13.2139 20.5007C13.2139 21.5394 14.0578 22.3833 15.0965 22.3833C16.1334 22.3833 16.979 21.5394 16.979 20.5007C16.979 19.4638 16.1351 18.6199 15.0999 18.6182M15.0965 24.9458C12.645 24.9458 10.6514 22.9505 10.6514 20.5007C10.6514 18.0493 12.645 16.0557 15.0965 16.0557C17.5513 16.0574 19.5415 18.051 19.5415 20.5007C19.5415 22.9505 17.5479 24.9458 15.0965 24.9458" fill="#00D438"/>
<path fill-rule="evenodd" clip-rule="evenodd" d="M29.0589 24.9458C28.3516 24.9458 27.7776 24.3718 27.7776 23.6646V21.7803H18.2656C17.5584 21.7803 16.9844 21.208 16.9844 20.499C16.9844 19.7918 17.5584 19.2178 18.2656 19.2178H29.0589C29.7661 19.2178 30.3401 19.7918 30.3401 20.499V23.6646C30.3401 24.3718 29.7661 24.9458 29.0589 24.9458" fill="#00D438"/>
<path fill-rule="evenodd" clip-rule="evenodd" d="M24.2275 24.9458C23.5203 24.9458 22.9463 24.3718 22.9463 23.6646V20.499C22.9463 19.7918 23.5203 19.2178 24.2275 19.2178C24.9348 19.2178 25.5088 19.7918 25.5088 20.499V23.6646C25.5088 24.3718 24.9348 24.9458 24.2275 24.9458" fill="#00D438"/>
</svg>
