<svg width="12" height="12" viewBox="0 0 12 12" fill="none" xmlns="http://www.w3.org/2000/svg">
<path d="M7.09548 10.8276L7.09548 7.09393L10.8291 7.09393C11.1262 7.09393 11.4111 6.97592 11.6212 6.76586C11.8312 6.5558 11.9492 6.2709 11.9492 5.97383C11.9492 5.67677 11.8312 5.39187 11.6212 5.18181C11.4111 4.97175 11.1262 4.85374 10.8291 4.85374L7.09548 4.85374V1.12009C7.09548 0.823027 6.97747 0.538126 6.76741 0.328068C6.55735 0.11801 6.27245 0 5.97538 0C5.67832 0 5.39342 0.11801 5.18336 0.328068C4.9733 0.538126 4.85529 0.823027 4.85529 1.12009V4.85374L1.12164 4.85374C0.824577 4.85374 0.539677 4.97175 0.329619 5.18181C0.119561 5.39187 0.00155067 5.67677 0.00155067 5.97383C0.00155067 6.2709 0.119561 6.5558 0.329619 6.76586C0.539677 6.97592 0.824577 7.09393 1.12164 7.09393L4.85529 7.09393L4.85529 10.8276C4.85529 11.1246 4.9733 11.4095 5.18336 11.6196C5.39342 11.8297 5.67832 11.9477 5.97538 11.9477C6.27245 11.9477 6.55735 11.8297 6.76741 11.6196C6.97747 11.4095 7.09548 11.1246 7.09548 10.8276Z" fill="#31373D"/>
</svg>
