<svg width="20" height="21" viewBox="0 0 20 21" fill="none" xmlns="http://www.w3.org/2000/svg">
<rect x="0.75" y="4.35645" width="8.97619" height="12.5" rx="1.25" stroke="#989B9D" stroke-width="1.5"/>
<rect x="10.2734" y="4.35645" width="8.97619" height="12.5" rx="1.25" stroke="#989B9D" stroke-width="1.5"/>
<rect x="1.9043" y="6.60596" width="6.66667" height="1" rx="0.1" fill="#989B9D"/>
<rect x="1.9043" y="12.6064" width="6.66667" height="1" rx="0.1" fill="#989B9D"/>
<rect x="1.9043" y="9.60693" width="6.66667" height="1" rx="0.1" fill="#989B9D"/>
<mask id="mask0_49_818" style="mask-type:luminance" maskUnits="userSpaceOnUse" x="11" y="12" width="8" height="4">
<path fill-rule="evenodd" clip-rule="evenodd" d="M11.4287 12.2661H18.0954V15.6061H11.4287V12.2661Z" fill="white"/>
</mask>
<g mask="url(#mask0_49_818)">
<path fill-rule="evenodd" clip-rule="evenodd" d="M14.7625 12.9457C12.9692 12.9457 12.0601 13.2773 12.0601 13.9318C12.0601 14.5922 12.9692 14.9269 14.7625 14.9269C16.5555 14.9269 17.4641 14.5953 17.4641 13.9408C17.4641 13.2804 16.5555 12.9457 14.7625 12.9457ZM14.7625 15.6061C13.938 15.6061 11.4287 15.6061 11.4287 13.9316C11.4287 12.4387 13.3315 12.2661 14.7625 12.2661C15.587 12.2661 18.0954 12.2661 18.0954 13.9406C18.0954 15.4336 16.1931 15.6061 14.7625 15.6061Z" fill="#989B9D"/>
</g>
<mask id="mask1_49_818" style="mask-type:luminance" maskUnits="userSpaceOnUse" x="12" y="6" width="5" height="6">
<path fill-rule="evenodd" clip-rule="evenodd" d="M12.5273 6.60596H16.9971V11.4156H12.5273V6.60596Z" fill="white"/>
</mask>
<g mask="url(#mask1_49_818)">
<path fill-rule="evenodd" clip-rule="evenodd" d="M14.7627 7.25295C13.8616 7.25295 13.1284 8.04152 13.1284 9.01127C13.1255 9.97786 13.8532 10.766 14.7505 10.7696L14.7627 11.093V10.7696C15.6634 10.7696 16.3961 9.98058 16.3961 9.01127C16.3961 8.04152 15.6634 7.25295 14.7627 7.25295ZM14.7626 11.4153H14.7492C13.5194 11.4112 12.5231 10.3318 12.5274 9.00924C12.5274 7.68438 13.5299 6.60547 14.7626 6.60547C15.995 6.60547 16.9971 7.68438 16.9971 9.0106C16.9971 10.3368 15.995 11.4153 14.7626 11.4153Z" fill="#989B9D"/>
</g>
</svg>
