<svg width="12" height="20" viewBox="0 0 12 20" fill="none" xmlns="http://www.w3.org/2000/svg">
<path d="M0.532937 0.526183C0.363998 0.691892 0.229969 0.888723 0.13852 1.10541C0.0470718 1.3221 0 1.55438 0 1.78897C0 2.02356 0.0470718 2.25584 0.13852 2.47253C0.229969 2.68922 0.363998 2.88605 0.532937 3.05176L7.60367 10.0016L0.532937 16.9514C0.192198 17.2863 0.000771642 17.7405 0.000771642 18.2141C0.000771642 18.6878 0.192198 19.142 0.532937 19.4769C0.873677 19.8119 1.33582 20 1.8177 20C2.29958 20 2.76172 19.8119 3.10246 19.4769L11.4671 11.2554C11.636 11.0897 11.77 10.8929 11.8615 10.6762C11.9529 10.4595 12 10.2272 12 9.9926C12 9.75802 11.9529 9.52573 11.8615 9.30904C11.77 9.09236 11.636 8.89553 11.4671 8.72982L3.10246 0.508271C2.40996 -0.17238 1.24366 -0.17238 0.532937 0.526183Z" fill="#989B9D"/>
</svg>
