<svg width="13" height="21" viewBox="0 0 13 21" fill="none" xmlns="http://www.w3.org/2000/svg">
<path d="M0.742745 1.06787C0.576022 1.23425 0.44375 1.43188 0.3535 1.64945C0.263251 1.86701 0.216797 2.10024 0.216797 2.33578C0.216797 2.57132 0.263251 2.80455 0.3535 3.02211C0.44375 3.23968 0.576022 3.43731 0.742745 3.60369L7.72075 10.5817L0.742745 17.5597C0.406474 17.896 0.217558 18.3521 0.217558 18.8276C0.217558 19.3032 0.406474 19.7593 0.742745 20.0955C1.07902 20.4318 1.5351 20.6207 2.01066 20.6207C2.48621 20.6207 2.9423 20.4318 3.27857 20.0955L11.5335 11.8406C11.7002 11.6742 11.8325 11.4766 11.9227 11.259C12.013 11.0415 12.0594 10.8082 12.0594 10.5727C12.0594 10.3372 12.013 10.1039 11.9227 9.88637C11.8325 9.66881 11.7002 9.47118 11.5335 9.30479L3.27857 1.04988C2.59515 0.366471 1.44414 0.366472 0.742745 1.06787Z" fill="#4DA0FF"/>
</svg>
