<svg width="43" height="43" viewBox="0 0 43 43" fill="none" xmlns="http://www.w3.org/2000/svg">
<path d="M16.5713 11.9441C16.4063 12.1088 16.2754 12.3044 16.1861 12.5197C16.0968 12.7351 16.0508 12.9659 16.0508 13.1991C16.0508 13.4322 16.0968 13.663 16.1861 13.8784C16.2754 14.0937 16.4063 14.2893 16.5713 14.454L23.4779 21.3606L16.5713 28.2672C16.2385 28.6 16.0515 29.0514 16.0515 29.5221C16.0515 29.9928 16.2385 30.4442 16.5713 30.777C16.9042 31.1099 17.3556 31.2968 17.8263 31.2968C18.297 31.2968 18.7484 31.1099 19.0812 30.777L27.2516 22.6066C27.4166 22.4419 27.5476 22.2463 27.6369 22.031C27.7262 21.8156 27.7722 21.5848 27.7722 21.3517C27.7722 21.1185 27.7262 20.8877 27.6369 20.6724C27.5476 20.457 27.4166 20.2614 27.2516 20.0967L19.0812 11.9263C18.4048 11.2499 17.2656 11.2499 16.5713 11.9441Z" fill="#989B9D"/>
</svg>
