<svg width="12" height="20" viewBox="0 0 12 20" fill="none" xmlns="http://www.w3.org/2000/svg">
<path d="M0.532937 19.4738C0.363998 19.3081 0.229969 19.1113 0.13852 18.8946C0.0470718 18.6779 0 18.4456 0 18.211C0 17.9764 0.0470718 17.7442 0.13852 17.5275C0.229969 17.3108 0.363998 17.114 0.532937 16.9482L7.60367 9.99844L0.532937 3.04863C0.192198 2.71372 0.000771642 2.25949 0.000771642 1.78585C0.000771642 1.31221 0.192198 0.857972 0.532937 0.52306C0.873677 0.188148 1.33582 -6.03806e-08 1.8177 -6.03806e-08C2.29958 -6.03806e-08 2.76172 0.188148 3.10246 0.52306L11.4671 8.74461C11.636 8.91032 11.77 9.10715 11.8615 9.32384C11.9529 9.54052 12 9.77281 12 10.0074C12 10.242 11.9529 10.4743 11.8615 10.691C11.77 10.9076 11.636 11.1045 11.4671 11.2702L3.10246 19.4917C2.40996 20.1724 1.24366 20.1724 0.532937 19.4738Z" fill="#4DA0FF"/>
</svg>
