<svg width="20" height="20" viewBox="0 0 20 20" fill="none" xmlns="http://www.w3.org/2000/svg">
<mask id="mask0_62_212" style="mask-type:luminance" maskUnits="userSpaceOnUse" x="1" y="1" width="17" height="17">
<path fill-rule="evenodd" clip-rule="evenodd" d="M1.66699 1.6665H17.8977V17.8973H1.66699V1.6665Z" fill="white"/>
</mask>
<g mask="url(#mask0_62_212)">
<path fill-rule="evenodd" clip-rule="evenodd" d="M9.78283 2.9165C5.99699 2.9165 2.91699 5.99567 2.91699 9.7815C2.91699 13.5673 5.99699 16.6473 9.78283 16.6473C13.5678 16.6473 16.6478 13.5673 16.6478 9.7815C16.6478 5.99567 13.5678 2.9165 9.78283 2.9165M9.78283 17.8973C5.30783 17.8973 1.66699 14.2565 1.66699 9.7815C1.66699 5.3065 5.30783 1.6665 9.78283 1.6665C14.2578 1.6665 17.8978 5.3065 17.8978 9.7815C17.8978 14.2565 14.2578 17.8973 9.78283 17.8973" fill="#989B9D"/>
</g>
<mask id="mask1_62_212" style="mask-type:luminance" maskUnits="userSpaceOnUse" x="14" y="14" width="5" height="5">
<path fill-rule="evenodd" clip-rule="evenodd" d="M14.3672 14.7559H18.5539V18.9348H14.3672V14.7559Z" fill="white"/>
</mask>
<g mask="url(#mask1_62_212)">
<path fill-rule="evenodd" clip-rule="evenodd" d="M17.9291 18.9348C17.7699 18.9348 17.6099 18.874 17.4874 18.7523L14.5507 15.824C14.3066 15.5798 14.3057 15.184 14.5499 14.9398C14.7932 14.694 15.1891 14.6957 15.4341 14.9382L18.3707 17.8673C18.6149 18.1115 18.6157 18.5065 18.3716 18.7507C18.2499 18.874 18.0891 18.9348 17.9291 18.9348" fill="#989B9D"/>
</g>
</svg>
