<svg width="20" height="21" viewBox="0 0 20 21" fill="none" xmlns="http://www.w3.org/2000/svg">
<mask id="mask0_44_1426" style="mask-type:luminance" maskUnits="userSpaceOnUse" x="1" y="2" width="17" height="18">
<path fill-rule="evenodd" clip-rule="evenodd" d="M1.66699 2.27344H17.7377V19.5409H1.66699V2.27344Z" fill="white"/>
</mask>
<g mask="url(#mask0_44_1426)">
<mask id="path-2-inside-1_44_1426" fill="white">
<path fill-rule="evenodd" clip-rule="evenodd" d="M6.00226 15.1401C6.19309 15.1401 6.38392 15.1643 6.57059 15.2143C7.13392 15.3659 7.62309 15.7426 7.91309 16.2484C8.10143 16.5659 8.20559 16.9368 8.20893 17.3151C8.20893 17.8568 8.64393 18.2909 9.17893 18.2909H10.2231C10.7556 18.2909 11.1906 17.8593 11.1931 17.3268C11.1898 16.7384 11.4198 16.1793 11.8406 15.7584C12.2556 15.3434 12.8356 15.0943 13.4156 15.1109C13.7956 15.1201 14.1614 15.2226 14.4839 15.4059C14.9481 15.6718 15.5406 15.5134 15.8089 15.0551L16.3623 14.1326C16.4856 13.9201 16.5214 13.6534 16.4556 13.4076C16.3906 13.1618 16.2273 12.9484 16.0073 12.8226C15.4923 12.5259 15.1248 12.0476 14.9723 11.4743C14.8214 10.9118 14.9039 10.2976 15.1981 9.79177C15.3898 9.45844 15.6706 9.1776 16.0073 8.98427C16.4589 8.7201 16.6173 8.12927 16.3548 7.66927C16.3439 7.65094 16.3339 7.63177 16.3256 7.61177L15.8373 6.7651C15.5714 6.3026 14.9798 6.14344 14.5156 6.4076C14.0139 6.70427 13.4173 6.78927 12.8439 6.63844C12.2714 6.4901 11.7914 6.1276 11.4923 5.61594C11.3006 5.29594 11.1964 4.92344 11.1931 4.54427C11.2006 4.25927 11.1006 4.00344 10.9189 3.81594C10.7381 3.62927 10.4839 3.52344 10.2231 3.52344H9.17893C8.92059 3.52344 8.67893 3.62427 8.49643 3.80594C8.31476 3.98844 8.21559 4.23094 8.21726 4.48927C8.19976 5.7076 7.20393 6.68844 5.99809 6.68844C5.61143 6.68427 5.23893 6.5801 4.91559 6.38677C4.46143 6.12844 3.86809 6.2876 3.60226 6.7501L3.03809 7.6776C2.77976 8.12594 2.93809 8.71844 3.39809 8.98594C4.08059 9.38094 4.50643 10.1176 4.50643 10.9076C4.50643 11.6976 4.08059 12.4334 3.39643 12.8293C2.93893 13.0943 2.78059 13.6834 3.04559 14.1418L3.57143 15.0484C3.70143 15.2826 3.91393 15.4518 4.15976 15.5209C4.40476 15.5893 4.67476 15.5601 4.89976 15.4351C5.23059 15.2409 5.61559 15.1401 6.00226 15.1401ZM10.2231 19.5409H9.17893C7.95476 19.5409 6.95893 18.5459 6.95893 17.3218C6.95726 17.1709 6.91393 17.0143 6.83309 16.8784C6.70226 16.6501 6.49059 16.4868 6.24643 16.4218C6.00393 16.3568 5.73809 16.3926 5.51976 16.5193C4.99643 16.8109 4.38059 16.8818 3.81726 16.7234C3.25476 16.5643 2.76893 16.1776 2.48393 15.6651L1.96309 14.7676C1.35393 13.7109 1.71643 12.3568 2.77143 11.7468C3.07059 11.5743 3.25643 11.2526 3.25643 10.9076C3.25643 10.5626 3.07059 10.2401 2.77143 10.0676C1.71559 9.45427 1.35393 8.09677 1.96226 7.0401L2.52726 6.1126C3.12809 5.0676 4.48643 4.69927 5.54559 5.3076C5.68976 5.39344 5.84643 5.43677 6.00559 5.43844C6.52476 5.43844 6.95893 5.0101 6.96726 4.48344C6.96393 3.9026 7.19309 3.3451 7.61059 2.92427C8.02976 2.50427 8.58643 2.27344 9.17893 2.27344H10.2231C10.8198 2.27344 11.3998 2.51844 11.8156 2.94427C12.2306 3.3726 12.4598 3.9601 12.4423 4.55594C12.4439 4.6901 12.4881 4.8451 12.5681 4.98094C12.7006 5.20594 12.9098 5.36427 13.1581 5.42927C13.4064 5.49094 13.6664 5.4576 13.8873 5.32677C14.9539 4.7176 16.3114 5.0826 16.9206 6.14094L17.4398 7.0401C17.4531 7.06427 17.4648 7.0876 17.4748 7.11177C18.0264 8.15427 17.6581 9.46677 16.6331 10.0659C16.4839 10.1518 16.3631 10.2718 16.2798 10.4168C16.1506 10.6409 16.1148 10.9076 16.1798 11.1526C16.2464 11.4026 16.4056 11.6101 16.6298 11.7384C17.1356 12.0293 17.5131 12.5193 17.6639 13.0851C17.8148 13.6501 17.7323 14.2634 17.4381 14.7693L16.8848 15.6909C16.2756 16.7376 14.9181 17.1001 13.8623 16.4901C13.7214 16.4093 13.5589 16.3651 13.3973 16.3609H13.3923C13.1514 16.3609 12.9039 16.4634 12.7239 16.6426C12.5414 16.8251 12.4414 17.0684 12.4431 17.3268C12.4373 18.5509 11.4414 19.5409 10.2231 19.5409Z"/>
</mask>
<path fill-rule="evenodd" clip-rule="evenodd" d="M6.00226 15.1401C6.19309 15.1401 6.38392 15.1643 6.57059 15.2143C7.13392 15.3659 7.62309 15.7426 7.91309 16.2484C8.10143 16.5659 8.20559 16.9368 8.20893 17.3151C8.20893 17.8568 8.64393 18.2909 9.17893 18.2909H10.2231C10.7556 18.2909 11.1906 17.8593 11.1931 17.3268C11.1898 16.7384 11.4198 16.1793 11.8406 15.7584C12.2556 15.3434 12.8356 15.0943 13.4156 15.1109C13.7956 15.1201 14.1614 15.2226 14.4839 15.4059C14.9481 15.6718 15.5406 15.5134 15.8089 15.0551L16.3623 14.1326C16.4856 13.9201 16.5214 13.6534 16.4556 13.4076C16.3906 13.1618 16.2273 12.9484 16.0073 12.8226C15.4923 12.5259 15.1248 12.0476 14.9723 11.4743C14.8214 10.9118 14.9039 10.2976 15.1981 9.79177C15.3898 9.45844 15.6706 9.1776 16.0073 8.98427C16.4589 8.7201 16.6173 8.12927 16.3548 7.66927C16.3439 7.65094 16.3339 7.63177 16.3256 7.61177L15.8373 6.7651C15.5714 6.3026 14.9798 6.14344 14.5156 6.4076C14.0139 6.70427 13.4173 6.78927 12.8439 6.63844C12.2714 6.4901 11.7914 6.1276 11.4923 5.61594C11.3006 5.29594 11.1964 4.92344 11.1931 4.54427C11.2006 4.25927 11.1006 4.00344 10.9189 3.81594C10.7381 3.62927 10.4839 3.52344 10.2231 3.52344H9.17893C8.92059 3.52344 8.67893 3.62427 8.49643 3.80594C8.31476 3.98844 8.21559 4.23094 8.21726 4.48927C8.19976 5.7076 7.20393 6.68844 5.99809 6.68844C5.61143 6.68427 5.23893 6.5801 4.91559 6.38677C4.46143 6.12844 3.86809 6.2876 3.60226 6.7501L3.03809 7.6776C2.77976 8.12594 2.93809 8.71844 3.39809 8.98594C4.08059 9.38094 4.50643 10.1176 4.50643 10.9076C4.50643 11.6976 4.08059 12.4334 3.39643 12.8293C2.93893 13.0943 2.78059 13.6834 3.04559 14.1418L3.57143 15.0484C3.70143 15.2826 3.91393 15.4518 4.15976 15.5209C4.40476 15.5893 4.67476 15.5601 4.89976 15.4351C5.23059 15.2409 5.61559 15.1401 6.00226 15.1401ZM10.2231 19.5409H9.17893C7.95476 19.5409 6.95893 18.5459 6.95893 17.3218C6.95726 17.1709 6.91393 17.0143 6.83309 16.8784C6.70226 16.6501 6.49059 16.4868 6.24643 16.4218C6.00393 16.3568 5.73809 16.3926 5.51976 16.5193C4.99643 16.8109 4.38059 16.8818 3.81726 16.7234C3.25476 16.5643 2.76893 16.1776 2.48393 15.6651L1.96309 14.7676C1.35393 13.7109 1.71643 12.3568 2.77143 11.7468C3.07059 11.5743 3.25643 11.2526 3.25643 10.9076C3.25643 10.5626 3.07059 10.2401 2.77143 10.0676C1.71559 9.45427 1.35393 8.09677 1.96226 7.0401L2.52726 6.1126C3.12809 5.0676 4.48643 4.69927 5.54559 5.3076C5.68976 5.39344 5.84643 5.43677 6.00559 5.43844C6.52476 5.43844 6.95893 5.0101 6.96726 4.48344C6.96393 3.9026 7.19309 3.3451 7.61059 2.92427C8.02976 2.50427 8.58643 2.27344 9.17893 2.27344H10.2231C10.8198 2.27344 11.3998 2.51844 11.8156 2.94427C12.2306 3.3726 12.4598 3.9601 12.4423 4.55594C12.4439 4.6901 12.4881 4.8451 12.5681 4.98094C12.7006 5.20594 12.9098 5.36427 13.1581 5.42927C13.4064 5.49094 13.6664 5.4576 13.8873 5.32677C14.9539 4.7176 16.3114 5.0826 16.9206 6.14094L17.4398 7.0401C17.4531 7.06427 17.4648 7.0876 17.4748 7.11177C18.0264 8.15427 17.6581 9.46677 16.6331 10.0659C16.4839 10.1518 16.3631 10.2718 16.2798 10.4168C16.1506 10.6409 16.1148 10.9076 16.1798 11.1526C16.2464 11.4026 16.4056 11.6101 16.6298 11.7384C17.1356 12.0293 17.5131 12.5193 17.6639 13.0851C17.8148 13.6501 17.7323 14.2634 17.4381 14.7693L16.8848 15.6909C16.2756 16.7376 14.9181 17.1001 13.8623 16.4901C13.7214 16.4093 13.5589 16.3651 13.3973 16.3609H13.3923C13.1514 16.3609 12.9039 16.4634 12.7239 16.6426C12.5414 16.8251 12.4414 17.0684 12.4431 17.3268C12.4373 18.5509 11.4414 19.5409 10.2231 19.5409Z" fill="#989B9D"/>
<path d="M6.57059 15.2143L6.96055 13.7658L6.9587 13.7653L6.57059 15.2143ZM7.91309 16.2484L6.61178 16.9945L6.61731 17.0041L6.62298 17.0137L7.91309 16.2484ZM8.20893 17.3151H9.70898L9.70887 17.3019L8.20893 17.3151ZM11.1931 17.3268L12.6931 17.3338L12.6931 17.326L12.6931 17.3183L11.1931 17.3268ZM13.4156 15.1109L13.3725 16.6103L13.3794 16.6105L13.4156 15.1109ZM14.4839 15.4059L15.2294 14.1043L15.2252 14.1019L14.4839 15.4059ZM15.8089 15.0551L14.5226 14.2835L14.5185 14.2904L14.5145 14.2972L15.8089 15.0551ZM16.3623 14.1326L17.6486 14.9042L17.6542 14.8949L17.6596 14.8856L16.3623 14.1326ZM16.4556 13.4076L15.0054 13.791L15.0066 13.7956L16.4556 13.4076ZM16.0073 12.8226L15.2585 14.1224L15.2625 14.1247L16.0073 12.8226ZM14.9723 11.4743L16.4219 11.0887L16.4211 11.0858L14.9723 11.4743ZM15.1981 9.79177L16.4948 10.5459L16.4985 10.5395L15.1981 9.79177ZM16.0073 8.98427L16.7543 10.2851L16.7645 10.2791L16.0073 8.98427ZM16.3548 7.66927L17.6576 6.92582L17.6519 6.91596L17.6461 6.90618L16.3548 7.66927ZM16.3256 7.61177L17.7102 7.03485L17.6731 6.94585L17.625 6.86234L16.3256 7.61177ZM15.8373 6.7651L14.5368 7.51259L14.5379 7.51454L15.8373 6.7651ZM14.5156 6.4076L13.7737 5.10395L13.7628 5.11012L13.7521 5.11647L14.5156 6.4076ZM12.8439 6.63844L13.2256 5.18779L13.2201 5.18638L12.8439 6.63844ZM11.4923 5.61594L12.7872 4.85882L12.7832 4.85198L12.7791 4.84518L11.4923 5.61594ZM11.1931 4.54427L9.69361 4.50481L9.69292 4.53113L9.69315 4.55746L11.1931 4.54427ZM10.9189 3.81594L9.84156 4.85963L9.84164 4.85971L10.9189 3.81594ZM8.49643 3.80594L7.43818 2.74284L7.43334 2.74771L8.49643 3.80594ZM8.21726 4.48927L9.7171 4.51081L9.71733 4.4952L9.71723 4.47959L8.21726 4.48927ZM5.99809 6.68844L5.98193 8.18835L5.99001 8.18844H5.99809V6.68844ZM4.91559 6.38677L5.68538 5.09936L5.67139 5.091L5.65722 5.08294L4.91559 6.38677ZM3.60226 6.7501L4.8838 7.52962L4.89347 7.51372L4.90274 7.49759L3.60226 6.7501ZM3.03809 7.6776L1.75655 6.89809L1.7473 6.91329L1.73841 6.92872L3.03809 7.6776ZM3.39809 8.98594L2.64404 10.2826L2.64672 10.2842L3.39809 8.98594ZM3.39643 12.8293L2.64524 11.5309L2.64459 11.5313L3.39643 12.8293ZM3.04559 14.1418L1.74702 14.8926L1.74802 14.8943L3.04559 14.1418ZM3.57143 15.0484L4.88288 14.3204L4.87605 14.3081L4.86899 14.2959L3.57143 15.0484ZM4.15976 15.5209L3.7535 16.9649L3.75677 16.9658L4.15976 15.5209ZM4.89976 15.4351L5.62822 16.7463L5.64372 16.7377L5.65901 16.7288L4.89976 15.4351ZM6.95893 17.3218H8.45893V17.3135L8.45883 17.3052L6.95893 17.3218ZM6.83309 16.8784L5.53161 17.6242L5.53775 17.6349L5.54407 17.6455L6.83309 16.8784ZM6.24643 16.4218L5.85807 17.8706L5.86055 17.8713L6.24643 16.4218ZM5.51976 16.5193L6.24999 17.8295L6.26129 17.8232L6.27248 17.8167L5.51976 16.5193ZM3.81726 16.7234L3.40885 18.1668L3.41139 18.1675L3.81726 16.7234ZM2.48393 15.6651L3.79486 14.9361L3.78819 14.9241L3.78129 14.9122L2.48393 15.6651ZM1.96309 14.7676L0.66357 15.5168L0.665723 15.5205L1.96309 14.7676ZM2.77143 11.7468L2.02215 10.4473L2.0206 10.4482L2.77143 11.7468ZM2.77143 10.0676L2.01797 11.3647L2.02216 11.3671L2.77143 10.0676ZM1.96226 7.0401L0.681228 6.25975L0.671565 6.27561L0.662298 6.2917L1.96226 7.0401ZM2.52726 6.1126L3.80829 6.89296L3.81817 6.87674L3.82764 6.86027L2.52726 6.1126ZM5.54559 5.3076L6.31295 4.01874L6.30285 4.01273L6.29266 4.00688L5.54559 5.3076ZM6.00559 5.43844L5.98989 6.93836L5.99774 6.93844H6.00559V5.43844ZM6.96726 4.48344L8.46707 4.50717L8.46733 4.491L8.46723 4.47483L6.96726 4.48344ZM7.61059 2.92427L6.54887 1.86466L6.54572 1.86784L7.61059 2.92427ZM11.8156 2.94427L12.8929 1.9005L12.8888 1.89629L11.8156 2.94427ZM12.4423 4.55594L10.9429 4.5119L10.942 4.54323L10.9424 4.57457L12.4423 4.55594ZM12.5681 4.98094L13.8606 4.21978L13.8606 4.21971L12.5681 4.98094ZM13.1581 5.42927L12.7783 6.88039L12.7874 6.88278L12.7966 6.88506L13.1581 5.42927ZM13.8873 5.32677L13.1434 4.02422L13.133 4.03015L13.1227 4.03625L13.8873 5.32677ZM16.9206 6.14094L15.6206 6.88922L15.6216 6.89097L16.9206 6.14094ZM17.4398 7.0401L18.7531 6.31549L18.7461 6.30271L18.7388 6.29007L17.4398 7.0401ZM17.4748 7.11177L16.0887 7.6853L16.1158 7.75075L16.1489 7.81336L17.4748 7.11177ZM16.6331 10.0659L17.3812 11.3661L17.3901 11.3609L16.6331 10.0659ZM16.2798 10.4168L17.5794 11.1657L17.5803 11.1642L16.2798 10.4168ZM16.1798 11.1526L14.7299 11.5373L14.7304 11.5391L16.1798 11.1526ZM16.6298 11.7384L17.3774 10.4381L17.375 10.4367L16.6298 11.7384ZM17.6639 13.0851L16.2145 13.4715L16.2147 13.472L17.6639 13.0851ZM17.4381 14.7693L18.7241 15.5414L18.7295 15.5324L18.7348 15.5233L17.4381 14.7693ZM16.8848 15.6909L15.5987 14.9189L15.5935 14.9276L15.5883 14.9364L16.8848 15.6909ZM13.8623 16.4901L14.6126 15.1913L14.609 15.1892L13.8623 16.4901ZM13.3973 16.3609L13.4359 14.8614L13.4166 14.8609H13.3973V16.3609ZM12.7239 16.6426L11.6657 15.5795L11.6633 15.5819L12.7239 16.6426ZM12.4431 17.3268L13.9431 17.3339L13.9431 17.3255L13.9431 17.3171L12.4431 17.3268ZM6.00226 15.1401V16.6401C6.0662 16.6401 6.12636 16.6482 6.18249 16.6632L6.57059 15.2143L6.9587 13.7653C6.6415 13.6804 6.31998 13.6401 6.00226 13.6401V15.1401ZM6.57059 15.2143L6.18063 16.6627C6.35948 16.7108 6.52043 16.8351 6.61178 16.9945L7.91309 16.2484L9.2144 15.5024C8.72576 14.6501 7.90837 14.021 6.96055 13.7658L6.57059 15.2143ZM7.91309 16.2484L6.62298 17.0137C6.67547 17.1022 6.70797 17.2133 6.70898 17.3283L8.20893 17.3151L9.70887 17.3019C9.70321 16.6602 9.52738 16.0297 9.2032 15.4832L7.91309 16.2484ZM8.20893 17.3151H6.70893C6.70893 18.6802 7.81048 19.7909 9.17893 19.7909V18.2909V16.7909C9.47737 16.7909 9.70893 17.0334 9.70893 17.3151H8.20893ZM9.17893 18.2909V19.7909H10.2231V18.2909V16.7909H9.17893V18.2909ZM10.2231 18.2909V19.7909C11.5787 19.7909 12.6867 18.6946 12.6931 17.3338L11.1931 17.3268L9.69311 17.3197C9.6945 17.0239 9.93252 16.7909 10.2231 16.7909V18.2909ZM11.1931 17.3268L12.6931 17.3183C12.692 17.1336 12.7618 16.9586 12.9013 16.8191L11.8406 15.7584L10.7799 14.6978C10.0778 15.4 9.6875 16.3433 9.69312 17.3353L11.1931 17.3268ZM11.8406 15.7584L12.9013 16.8191C13.0494 16.6709 13.2392 16.6065 13.3725 16.6103L13.4156 15.1109L13.4587 13.6116C12.432 13.5821 11.4618 14.0159 10.7799 14.6978L11.8406 15.7584ZM13.4156 15.1109L13.3794 16.6105C13.5121 16.6137 13.6357 16.6492 13.7426 16.71L14.4839 15.4059L15.2252 14.1019C14.6872 13.7961 14.0791 13.6265 13.4518 13.6114L13.4156 15.1109ZM14.4839 15.4059L13.7385 16.7076C14.9143 17.381 16.418 16.9837 17.1034 15.813L15.8089 15.0551L14.5145 14.2972C14.6632 14.0431 14.9819 13.9625 15.2294 14.1043L14.4839 15.4059ZM15.8089 15.0551L17.0953 15.8267L17.6486 14.9042L16.3623 14.1326L15.0759 13.361L14.5226 14.2835L15.8089 15.0551ZM16.3623 14.1326L17.6596 14.8856C17.986 14.3232 18.0721 13.6453 17.9045 13.0196L16.4556 13.4076L15.0066 13.7956C14.9707 13.6615 14.9852 13.517 15.0649 13.3796L16.3623 14.1326ZM16.4556 13.4076L17.9058 13.0242C17.7387 12.3923 17.3227 11.847 16.752 11.5205L16.0073 12.8226L15.2625 14.1247C15.1318 14.0499 15.0425 13.9312 15.0054 13.791L16.4556 13.4076ZM16.0073 12.8226L16.756 11.5228C16.5856 11.4247 16.4713 11.2747 16.4219 11.0887L14.9723 11.4743L13.5227 11.8598C13.7782 12.8206 14.3989 13.6272 15.2585 14.1224L16.0073 12.8226ZM14.9723 11.4743L16.4211 11.0858C16.3743 10.9114 16.4003 10.7083 16.4948 10.5458L15.1981 9.79177L13.9014 9.03769C13.4076 9.8869 13.2685 10.9121 13.5234 11.8628L14.9723 11.4743ZM15.1981 9.79177L16.4985 10.5395C16.5573 10.4371 16.6468 10.3467 16.7542 10.285L16.0073 8.98427L15.2603 7.68349C14.6943 8.00848 14.2222 8.4798 13.8977 9.04406L15.1981 9.79177ZM16.0073 8.98427L16.7645 10.2791C17.931 9.59687 18.3247 8.09485 17.6576 6.92582L16.3548 7.66927L15.052 8.41272C14.9099 8.1637 14.9869 7.84334 15.25 7.68947L16.0073 8.98427ZM16.3548 7.66927L17.6461 6.90618C17.662 6.93296 17.686 6.97666 17.7102 7.03485L16.3256 7.61177L14.941 8.18869C14.9819 8.28688 15.0259 8.36892 15.0634 8.43236L16.3548 7.66927ZM16.3256 7.61177L17.625 6.86234L17.1366 6.01567L15.8373 6.7651L14.5379 7.51454L15.0262 8.36121L16.3256 7.61177ZM15.8373 6.7651L17.1377 6.01762C16.4574 4.83386 14.9504 4.43421 13.7737 5.10395L14.5156 6.4076L15.2575 7.71126C15.0091 7.85266 14.6855 7.77135 14.5368 7.51259L15.8373 6.7651ZM14.5156 6.4076L13.7521 5.11647C13.5956 5.20902 13.4113 5.23666 13.2256 5.1878L12.8439 6.63844L12.4623 8.08908C13.4232 8.34188 14.4323 8.19952 15.2791 7.69874L14.5156 6.4076ZM12.8439 6.63844L13.2201 5.18638C13.0337 5.13809 12.8846 5.02544 12.7872 4.85882L11.4923 5.61594L10.1974 6.37305C10.6983 7.22977 11.5091 7.84212 12.4677 8.09049L12.8439 6.63844ZM11.4923 5.61594L12.7791 4.84518C12.7266 4.75756 12.6941 4.64716 12.693 4.53108L11.1931 4.54427L9.69315 4.55746C9.6988 5.19971 9.87457 5.83431 10.2054 6.3867L11.4923 5.61594ZM11.1931 4.54427L12.6926 4.58373C12.7102 3.91383 12.471 3.26216 11.9962 2.77217L10.9189 3.81594L9.84164 4.85971C9.73022 4.74471 9.69098 4.60471 9.69361 4.50481L11.1931 4.54427ZM10.9189 3.81594L11.9963 2.77224C11.5275 2.28832 10.8821 2.02344 10.2231 2.02344V3.52344V5.02344C10.0857 5.02344 9.9487 4.97023 9.84156 4.85963L10.9189 3.81594ZM10.2231 3.52344V2.02344H9.17893V3.52344V5.02344H10.2231V3.52344ZM9.17893 3.52344V2.02344C8.52043 2.02344 7.89929 2.28387 7.4382 2.74285L8.49643 3.80594L9.55466 4.86902C9.45856 4.96468 9.32076 5.02344 9.17893 5.02344V3.52344ZM8.49643 3.80594L7.43334 2.74771C6.96888 3.2143 6.71305 3.84149 6.71729 4.49895L8.21726 4.48927L9.71723 4.47959C9.71814 4.62038 9.66063 4.76258 9.55951 4.86417L8.49643 3.80594ZM8.21726 4.48927L6.71741 4.46773C6.71162 4.87092 6.37911 5.18844 5.99809 5.18844V6.68844V8.18844C8.02875 8.18844 9.68789 6.54429 9.7171 4.51081L8.21726 4.48927ZM5.99809 6.68844L6.01425 5.18852C5.88729 5.18716 5.77575 5.15339 5.68538 5.09936L4.91559 6.38677L4.1458 7.67418C4.7021 8.00681 5.33556 8.18139 5.98193 8.18835L5.99809 6.68844ZM4.91559 6.38677L5.65722 5.08294C4.4816 4.41424 2.97702 4.82781 2.30177 6.00262L3.60226 6.7501L4.90274 7.49759C4.75916 7.7474 4.44125 7.84264 4.17396 7.69061L4.91559 6.38677ZM3.60226 6.7501L2.32072 5.97059L1.75655 6.89809L3.03809 7.6776L4.31963 8.45712L4.8838 7.52962L3.60226 6.7501ZM3.03809 7.6776L1.73841 6.92872C1.05985 8.10636 1.48349 9.60774 2.64404 10.2826L3.39809 8.98594L4.15215 7.68925C4.39269 7.82913 4.49967 8.14552 4.33777 8.42649L3.03809 7.6776ZM3.39809 8.98594L2.64672 10.2842C2.86659 10.4114 3.00643 10.6537 3.00643 10.9076H4.50643H6.00643C6.00643 9.58146 5.29459 8.35044 4.14946 7.68769L3.39809 8.98594ZM4.50643 10.9076H3.00643C3.00643 11.1602 2.86774 11.4022 2.64524 11.5309L3.39643 12.8293L4.14761 14.1276C5.29344 13.4647 6.00643 12.2351 6.00643 10.9076H4.50643ZM3.39643 12.8293L2.64459 11.5313C1.47267 12.2101 1.06642 13.7154 1.74702 14.8926L3.04559 14.1418L4.34416 13.391C4.49477 13.6514 4.40518 13.9784 4.14826 14.1272L3.39643 12.8293ZM3.04559 14.1418L1.74802 14.8943L2.27386 15.801L3.57143 15.0484L4.86899 14.2959L4.34316 13.3892L3.04559 14.1418ZM3.57143 15.0484L2.25997 15.7765C2.57741 16.3483 3.10936 16.7836 3.7535 16.9649L4.15976 15.5209L4.56602 14.077C4.71849 14.1199 4.82544 14.2169 4.88288 14.3204L3.57143 15.0484ZM4.15976 15.5209L3.75677 16.9658C4.37308 17.1377 5.05047 17.0673 5.62822 16.7463L4.89976 15.4351L4.17129 14.1239C4.29904 14.0529 4.43644 14.0409 4.56275 14.0761L4.15976 15.5209ZM4.89976 15.4351L5.65901 16.7288C5.75027 16.6752 5.87146 16.6401 6.00226 16.6401V15.1401V13.6401C5.35972 13.6401 4.71092 13.8067 4.14051 14.1414L4.89976 15.4351ZM10.2231 19.5409V18.0409H9.17893V19.5409V21.0409H10.2231V19.5409ZM9.17893 19.5409V18.0409C8.78245 18.0409 8.45893 17.7168 8.45893 17.3218H6.95893H5.45893C5.45893 19.3751 7.12706 21.0409 9.17893 21.0409V19.5409ZM6.95893 17.3218L8.45883 17.3052C8.45423 16.8882 8.33722 16.4728 8.12211 16.1113L6.83309 16.8784L5.54407 17.6455C5.49063 17.5557 5.46029 17.4537 5.45902 17.3383L6.95893 17.3218ZM6.83309 16.8784L8.13458 16.1327C7.81011 15.5664 7.27376 15.143 6.6323 14.9723L6.24643 16.4218L5.86055 17.8713C5.70742 17.8305 5.59441 17.7338 5.53161 17.6242L6.83309 16.8784ZM6.24643 16.4218L6.63478 14.9729C6.00351 14.8037 5.32739 14.8967 4.76703 15.2218L5.51976 16.5193L6.27248 17.8167C6.14879 17.8885 6.00434 17.9098 5.85807 17.8706L6.24643 16.4218ZM5.51976 16.5193L4.78952 15.209C4.61076 15.3087 4.4032 15.33 4.22313 15.2794L3.81726 16.7234L3.41139 18.1675C4.35798 18.4335 5.38209 18.3132 6.24999 17.8295L5.51976 16.5193ZM3.81726 16.7234L4.22567 15.2801C4.05067 15.2306 3.88782 15.1033 3.79486 14.9361L2.48393 15.6651L1.17299 16.3941C1.65003 17.2519 2.45885 17.898 3.40885 18.1668L3.81726 16.7234ZM2.48393 15.6651L3.78129 14.9122L3.26046 14.0147L1.96309 14.7676L0.665723 15.5205L1.18656 16.418L2.48393 15.6651ZM1.96309 14.7676L3.26261 14.0184C3.06639 13.6781 3.18454 13.2406 3.52225 13.0453L2.77143 11.7468L2.0206 10.4482C0.248313 11.4729 -0.358537 13.7438 0.663575 15.5168L1.96309 14.7676ZM2.77143 11.7468L3.5207 13.0462C4.28413 12.606 4.75643 11.7891 4.75643 10.9076H3.25643H1.75643C1.75643 10.7161 1.85706 10.5425 2.02216 10.4473L2.77143 11.7468ZM3.25643 10.9076H4.75643C4.75643 10.0276 4.28537 9.20906 3.5207 8.76814L2.77143 10.0676L2.02216 11.3671C1.85581 11.2711 1.75643 11.0977 1.75643 10.9076H3.25643ZM2.77143 10.0676L3.52488 8.77056C3.18381 8.57244 3.06585 8.1296 3.26222 7.7885L1.96226 7.0401L0.662298 6.2917C-0.357998 8.06394 0.247375 10.3361 2.01798 11.3646L2.77143 10.0676ZM1.96226 7.0401L3.24329 7.82046L3.80829 6.89296L2.52726 6.1126L1.24623 5.33225L0.681228 6.25975L1.96226 7.0401ZM2.52726 6.1126L3.82764 6.86027C4.01302 6.53786 4.45284 6.40979 4.79852 6.60833L5.54559 5.3076L6.29266 4.00688C4.52001 2.98875 2.24317 3.59735 1.22688 5.36494L2.52726 6.1126ZM5.54559 5.3076L4.77824 6.59647C5.14722 6.81615 5.56279 6.93388 5.98989 6.93836L6.00559 5.43844L6.0213 3.93852C6.13006 3.93966 6.2323 3.97073 6.31295 4.01874L5.54559 5.3076ZM6.00559 5.43844V6.93844C7.3535 6.93844 8.44593 5.84331 8.46707 4.50717L6.96726 4.48344L5.46745 4.45971C5.47192 4.1769 5.69602 3.93844 6.00559 3.93844V5.43844ZM6.96726 4.48344L8.46723 4.47483C8.46623 4.29951 8.53398 4.12332 8.67546 3.98071L7.61059 2.92427L6.54572 1.86784C5.8522 2.56689 5.46162 3.5057 5.46728 4.49205L6.96726 4.48344ZM7.61059 2.92427L8.67231 3.98388C8.81022 3.84569 8.98496 3.77344 9.17893 3.77344V2.27344V0.773438C8.18789 0.773438 7.2493 1.16285 6.54888 1.86466L7.61059 2.92427ZM9.17893 2.27344V3.77344H10.2231V2.27344V0.773438H9.17893V2.27344ZM10.2231 2.27344V3.77344C10.4151 3.77344 10.6084 3.85499 10.7424 3.99226L11.8156 2.94427L12.8888 1.89629C12.1912 1.18189 11.2244 0.773438 10.2231 0.773438V2.27344ZM11.8156 2.94427L10.7383 3.98803C10.8731 4.12717 10.9485 4.32297 10.9429 4.5119L12.4423 4.55594L13.9416 4.59997C13.9711 3.59724 13.5881 2.61804 12.8929 1.90051L11.8156 2.94427ZM12.4423 4.55594L10.9424 4.57457C10.9476 4.99591 11.0767 5.40443 11.2756 5.74216L12.5681 4.98094L13.8606 4.21971C13.8847 4.26072 13.9025 4.30227 13.9152 4.34591C13.9276 4.38792 13.9411 4.45162 13.9421 4.53731L12.4423 4.55594ZM12.5681 4.98094L11.2756 5.7421C11.607 6.30486 12.1423 6.71392 12.7783 6.88039L13.1581 5.42927L13.5379 3.97816C13.6772 4.01462 13.7942 4.10701 13.8606 4.21978L12.5681 4.98094ZM13.1581 5.42927L12.7966 6.88506C13.4078 7.03683 14.0749 6.95909 14.6518 6.61729L13.8873 5.32677L13.1227 4.03625C13.258 3.95612 13.4051 3.94505 13.5196 3.97348L13.1581 5.42927ZM13.8873 5.32677L14.6311 6.62932C14.9862 6.42657 15.4271 6.55315 15.6206 6.88922L16.9206 6.14094L18.2206 5.39265C17.1957 3.61206 14.9217 3.00864 13.1434 4.02422L13.8873 5.32677ZM16.9206 6.14094L15.6216 6.89097L16.1407 7.79014L17.4398 7.0401L18.7388 6.29007L18.2196 5.3909L16.9206 6.14094ZM17.4398 7.0401L16.1264 7.76472C16.1214 7.75565 16.106 7.72711 16.0887 7.6853L17.4748 7.11177L18.8608 6.53824C18.8235 6.4481 18.7848 6.37289 18.7531 6.31549L17.4398 7.0401ZM17.4748 7.11177L16.1489 7.81336C16.3262 8.14839 16.2043 8.57911 15.8761 8.77096L16.6331 10.0659L17.3901 11.3609C19.1119 10.3544 19.7266 8.16015 18.8006 6.41018L17.4748 7.11177ZM16.6331 10.0659L15.885 8.76581C15.5129 8.97989 15.1985 9.28778 14.9792 9.66934L16.2798 10.4168L17.5803 11.1642C17.5277 11.2558 17.4549 11.3236 17.3812 11.3661L16.6331 10.0659ZM16.2798 10.4168L14.9801 9.66788C14.6564 10.2297 14.5617 10.9032 14.7299 11.5373L16.1798 11.1526L17.6296 10.768C17.6678 10.912 17.6448 11.0522 17.5794 11.1657L16.2798 10.4168ZM16.1798 11.1526L14.7304 11.5391C14.8997 12.1741 15.3112 12.712 15.8845 13.0402L16.6298 11.7384L17.375 10.4367C17.5 10.5082 17.5931 10.6312 17.6291 10.7661L16.1798 11.1526ZM16.6298 11.7384L15.8821 13.0388C16.0427 13.1312 16.1669 13.2927 16.2145 13.4715L17.6639 13.0851L19.1133 12.6987C18.8593 11.7458 18.2285 10.9274 17.3774 10.4381L16.6298 11.7384ZM17.6639 13.0851L16.2147 13.472C16.2623 13.6505 16.2355 13.8534 16.1414 14.0152L17.4381 14.7693L18.7348 15.5233C19.229 14.6735 19.3672 13.6497 19.1132 12.6982L17.6639 13.0851ZM17.4381 14.7693L16.1521 13.9972L15.5987 14.9189L16.8848 15.6909L18.1708 16.463L18.7241 15.5414L17.4381 14.7693ZM16.8848 15.6909L15.5883 14.9364C15.3959 15.2671 14.9544 15.3887 14.6126 15.1913L13.8623 16.4901L13.1119 17.7889C14.8818 18.8115 17.1553 18.2081 18.1812 16.4455L16.8848 15.6909ZM13.8623 16.4901L14.609 15.1892C14.2453 14.9804 13.8383 14.8718 13.4359 14.8614L13.3973 16.3609L13.3586 17.8604C13.2796 17.8584 13.1976 17.8381 13.1156 17.791L13.8623 16.4901ZM13.3973 16.3609V14.8609H13.3923V16.3609V17.8609H13.3973V16.3609ZM13.3923 16.3609V14.8609C12.7427 14.8609 12.1181 15.1292 11.6657 15.5795L12.7239 16.6426L13.7821 17.7057C13.731 17.7566 13.6743 17.7932 13.6155 17.8178C13.5572 17.8423 13.4826 17.8609 13.3923 17.8609V16.3609ZM12.7239 16.6426L11.6633 15.5819C11.1973 16.0479 10.9389 16.6766 10.9431 17.3364L12.4431 17.3268L13.9431 17.3171C13.944 17.4602 13.8855 17.6023 13.7846 17.7033L12.7239 16.6426ZM12.4431 17.3268L10.9431 17.3196C10.9412 17.7198 10.6142 18.0409 10.2231 18.0409V19.5409V21.0409C12.2687 21.0409 13.9333 19.3821 13.9431 17.3339L12.4431 17.3268Z" fill="#989B9D" mask="url(#path-2-inside-1_44_1426)"/>
</g>
<path fill-rule="evenodd" clip-rule="evenodd" d="M9.70448 9.33496C8.83781 9.33496 8.13281 10.0408 8.13281 10.9075C8.13281 11.7741 8.83781 12.4783 9.70448 12.4783C10.5711 12.4783 11.2761 11.7741 11.2761 10.9075C11.2761 10.0408 10.5711 9.33496 9.70448 9.33496ZM9.70448 13.7283C8.14865 13.7283 6.88281 12.4633 6.88281 10.9075C6.88281 9.35163 8.14865 8.08496 9.70448 8.08496C11.2603 8.08496 12.5261 9.35163 12.5261 10.9075C12.5261 12.4633 11.2603 13.7283 9.70448 13.7283Z" fill="#989B9D"/>
</svg>
