<svg width="132" height="209" viewBox="0 0 132 209" fill="none" xmlns="http://www.w3.org/2000/svg">
<rect x="40" width="10" height="47" rx="5" fill="#063579"/>
<rect x="40" y="9" width="9" height="52" rx="4.5" transform="rotate(-90 40 9)" fill="#063579"/>
<rect x="82" width="10" height="47" rx="5" fill="#063579"/>
<rect y="50" width="132" height="132" rx="15" fill="#063579"/>
<ellipse cx="30.5" cy="199" rx="11.5" ry="10" fill="#063579"/>
<ellipse cx="101.5" cy="199" rx="11.5" ry="10" fill="#063579"/>
<ellipse cx="30.5" cy="199" rx="4.5" ry="4" fill="white"/>
<ellipse cx="101.5" cy="199" rx="4.5" ry="4" fill="white"/>
<path d="M102.98 72.3576C106.4 73.0497 109.074 75.7476 109.76 79.1988C110.249 81.6717 110.179 84.224 109.554 86.6655C108.929 89.107 107.767 91.3749 106.153 93.3003L93.315 108.612L102.387 142.187C102.658 143.188 102.661 144.244 102.398 145.247C102.134 146.25 101.612 147.164 100.884 147.898L94.8083 154.028C94.2924 154.549 93.6638 154.941 92.9719 155.175C92.2801 155.408 91.544 155.477 90.8216 155.374C90.0991 155.272 89.4101 155.002 88.8087 154.585C88.2072 154.169 87.7099 153.617 87.3557 152.974L73.3884 127.61L58.1844 138.227V141.933C58.1844 143.491 57.5684 144.993 56.4764 146.095L48.6224 154.014C48.0542 154.588 47.3501 155.006 46.5768 155.228C45.8035 155.45 44.9869 155.468 44.2044 155.282C43.422 155.096 42.6999 154.71 42.1066 154.163C41.5133 153.616 41.0687 152.924 40.815 152.154L38.2764 144.475L30.665 141.914C29.9022 141.658 29.2169 141.209 28.6743 140.611C28.1318 140.012 27.75 139.284 27.5653 138.494C27.3805 137.705 27.399 136.881 27.6189 136.101C27.8388 135.32 28.2529 134.61 28.8217 134.037L36.6757 126.113C37.2175 125.566 37.8606 125.133 38.5685 124.837C39.2763 124.541 40.0349 124.389 40.801 124.389H44.4737L54.997 109.05L29.8577 94.9576C29.2199 94.6003 28.6731 94.0985 28.2602 93.4917C27.8473 92.8849 27.5796 92.1897 27.4783 91.4608C27.377 90.7319 27.4447 89.9892 27.6762 89.2912C27.9077 88.5932 28.2966 87.959 28.8124 87.4384L34.8884 81.3082C35.6157 80.5744 36.5223 80.0477 37.5164 79.7814C38.5106 79.5152 39.5568 79.5188 40.549 79.7921L73.8224 88.9451L89.003 75.9925C90.9113 74.3642 93.1592 73.1913 95.5791 72.5611C97.999 71.931 100.529 71.8645 102.98 72.3576Z" fill="white"/>
</svg>
